<?xml version="1.0" encoding="UTF-8" standalone="no"?>
<!-- Created with Inkscape (http://www.inkscape.org/) -->

<svg
   width="66.867744mm"
   height="66.794273mm"
   viewBox="0 0 66.867744 66.794273"
   version="1.1"
   id="svg1"
   xml:space="preserve"
   inkscape:version="1.3.2 (091e20ef0f, 2023-11-25, custom)"
   sodipodi:docname="zotres-black.svg"
   xmlns:inkscape="http://www.inkscape.org/namespaces/inkscape"
   xmlns:sodipodi="http://sodipodi.sourceforge.net/DTD/sodipodi-0.dtd"
   xmlns="http://www.w3.org/2000/svg"
   xmlns:svg="http://www.w3.org/2000/svg"><sodipodi:namedview
     id="namedview1"
     pagecolor="#ffffff"
     bordercolor="#999999"
     borderopacity="1"
     inkscape:showpageshadow="2"
     inkscape:pageopacity="0"
     inkscape:pagecheckerboard="0"
     inkscape:deskcolor="#d1d1d1"
     inkscape:document-units="mm"
     inkscape:zoom="2.043487"
     inkscape:cx="114.26547"
     inkscape:cy="125.03138"
     inkscape:window-width="1920"
     inkscape:window-height="1006"
     inkscape:window-x="0"
     inkscape:window-y="0"
     inkscape:window-maximized="1"
     inkscape:current-layer="layer1" /><defs
     id="defs1" /><g
     inkscape:label="Calque 1"
     inkscape:groupmode="layer"
     id="layer1"
     transform="translate(-74.718391,-119.69698)"><path
       style="fill:#060808;stroke:none;stroke-width:0.0574035"
       d="m 107.25151,119.71475 c -0.37555,0.0493 -0.76142,0.0298 -1.1391,0.0557 -0.57297,0.0392 -1.14439,0.0957 -1.71625,0.15309 -1.96334,0.19716 -3.92874,0.62431 -5.817012,1.19303 -8.2203,2.47586 -15.38872,8.13934 -19.56428,15.66311 -1.70722,3.07615 -2.94572,6.39011 -3.6362,9.84184 -0.37403,1.86978 -0.56092,3.76538 -0.64412,5.66513 -0.0469,1.07163 0.0161,2.15345 0.0892,3.21986 0.251,3.66518 1.11608,7.30974 2.55944,10.69237 1.27617,2.99081 2.98214,5.74934 5.04296,8.26228 2.18912,2.66938 4.86314,4.96579 7.76924,6.82153 3.2291,2.06202 6.82213,3.53483 10.555682,4.37963 3.74785,0.84803 7.69976,1.06186 11.51252,0.56516 4.08737,-0.53246 8.05555,-1.76332 11.69477,-3.71794 5.32597,-2.86057 9.87854,-7.19756 12.95318,-12.40734 2.90152,-4.91642 4.52509,-10.5363 4.66471,-16.23599 0.12735,-5.1991 -0.97785,-10.40506 -3.20112,-15.11209 -2.21872,-4.69737 -5.58761,-8.85953 -9.69329,-12.03652 -3.23182,-2.50079 -6.88626,-4.35587 -10.7835,-5.56678 -2.52043,-0.78312 -5.1871,-1.26697 -7.82183,-1.38232 -0.66423,-0.0291 -1.32297,-0.0602 -1.98963,-0.0602 -0.27297,0 -0.5647,-0.0291 -0.83534,0.006 m 1.06316,2.68183 -0.68749,2.62753 -0.18914,0.72903 -0.0954,0.31895 -0.44888,-1.60994 -0.55353,-2.02 0.53158,-0.0317 0.98722,-0.029 0.45564,0.0152 m 2.20226,0.0759 c -0.0129,0.29659 -0.1874,0.63029 -0.28107,0.91129 -0.19726,0.59179 -0.39045,1.18502 -0.58718,1.77699 -0.069,0.20749 -0.14212,0.41398 -0.20719,0.62271 -0.0304,0.0977 -0.0451,0.21883 -0.12441,0.28858 -0.15746,-1.23941 -0.63233,-2.43618 -0.78978,-3.67551 l 0.62271,0.0146 1.36692,0.0614 m -5.14874,3.66032 -0.33754,-0.86572 -0.67397,-1.76181 -0.24302,-0.6379 -0.051,-0.21865 0.37905,-0.0591 1.21505,-0.11712 0.34931,-0.0303 0.1097,0.0351 -0.0421,0.25337 -0.12437,0.60752 -0.39203,1.92888 -0.12188,0.60752 -0.0672,0.2582 m 7.4877,-3.35656 -0.46434,1.13911 -0.60453,1.47323 -0.30016,0.72903 -0.14977,0.30376 -0.15638,-1.00241 -0.3004,-1.98963 -0.099,-0.65309 -0.0204,-0.24902 0.13567,-0.0104 0.37971,0.0424 1.0024,0.1215 0.57715,0.0955 m -9.05206,-0.0911 -0.41008,3.87294 -0.16702,-0.30376 -0.30812,-0.66827 -0.8476,-1.82256 -0.33275,-0.74422 1.54918,-0.2758 0.51639,-0.0583 m 9.55326,3.88813 c -0.009,-0.43114 -0.0755,-0.86113 -0.10495,-1.29098 -0.0332,-0.48489 -0.0523,-0.97542 -0.11003,-1.45805 -0.029,-0.24192 -0.0305,-0.48692 -0.0576,-0.72903 -0.007,-0.0666 -0.0471,-0.20618 -3.4e-4,-0.26416 0.0284,-0.0352 0.0848,-0.0151 0.12108,-0.007 0.11038,0.0234 0.22363,0.0335 0.33414,0.0572 0.4042,0.087 0.81258,0.15194 1.21504,0.24869 0.0712,0.0171 0.34167,0.0334 0.36889,0.10897 0.0216,0.06 -0.0624,0.17054 -0.0899,0.22125 -0.10138,0.18674 -0.19849,0.37568 -0.30064,0.56195 -0.32949,0.60083 -0.65479,1.21003 -0.96184,1.82256 -0.0847,0.16905 -0.18011,0.33252 -0.26565,0.50121 -0.0397,0.0782 -0.071,0.18061 -0.14818,0.22782 m -11.99854,0.19744 c -0.0837,-0.0717 -0.12875,-0.19251 -0.18102,-0.28857 -0.10729,-0.19716 -0.21159,-0.396 -0.32034,-0.59233 -0.2964,-0.53507 -0.59286,-1.07047 -0.881292,-1.60993 -0.12447,-0.23281 -0.3234,-0.48447 -0.37916,-0.74421 0.17721,-0.0155 0.36011,-0.0895 0.531582,-0.13653 0.276,-0.0757 0.55629,-0.14401 0.83534,-0.20749 0.11327,-0.0258 0.38818,-0.14401 0.49616,-0.10104 0.0514,0.0205 0.0202,0.17124 0.0202,0.21724 -2e-5,0.21866 -0.0101,0.4352 -0.0154,0.65308 -0.0229,0.93368 -0.0326,1.87886 -0.1061,2.80978 m 16.09931,-2.90091 -0.43948,0.71384 -1.02144,1.60993 -0.49068,0.77459 -0.23548,0.33413 0.0456,-3.02241 0.0152,-0.72903 0.0395,-0.25641 0.14277,0.0134 0.3797,0.0992 1.56437,0.46279 m -17.997812,3.70588 h -0.0152 l -1.41755,-2.17189 -0.4509,-0.68346 -0.25787,-0.42526 c 0.47661,-0.21306 0.99347,-0.35019 1.48843,-0.51387 0.12054,-0.0399 0.24327,-0.0732 0.36451,-0.11101 0.0383,-0.0119 0.10621,-0.0467 0.14529,-0.0258 0.0627,0.0335 0.037,0.18249 0.037,0.24063 0,0.23346 6.2e-4,0.46604 0.0165,0.69865 0.0677,0.98898 0.0898,2.00038 0.0898,2.99204 m 20.093752,-2.94648 c -0.11649,0.27592 -0.37132,0.53377 -0.54852,0.77459 -0.35677,0.48485 -0.71309,0.97031 -1.06586,1.45805 -0.14341,0.19829 -0.2895,0.39458 -0.4337,0.59234 -0.0618,0.0847 -0.12163,0.20718 -0.21493,0.25819 0,-0.32385 0.0577,-0.64982 0.0885,-0.97203 0.0596,-0.62276 0.12274,-1.24549 0.18226,-1.86813 0.021,-0.21983 0.0573,-0.44773 0.0631,-0.66827 0.002,-0.0599 -0.0115,-0.20656 0.0506,-0.24117 0.0398,-0.0222 0.0938,0.008 0.13186,0.0209 0.11609,0.0399 0.23336,0.0764 0.34933,0.11668 0.47058,0.16343 0.93306,0.34879 1.39729,0.52888 m -22.493462,-0.24301 c 0.0593,0.19512 0.0589,0.42042 0.0785,0.62271 0.0266,0.27375 0.0645,0.54641 0.0911,0.82016 0.07,0.72043 0.23843,1.46348 0.24043,2.18707 -0.0974,-0.0475 -0.16122,-0.15975 -0.22782,-0.24301 l -0.41311,-0.51639 c -0.37346,-0.4668 -0.75043,-0.93046 -1.12392,-1.3973 -0.16955,-0.21194 -0.41386,-0.43713 -0.52854,-0.68346 l 1.88331,-0.78978 m 24.634972,1.21505 -0.28658,0.36451 -0.49902,0.59232 -1.24548,1.47325 -0.56607,0.65309 0.0414,-0.34933 0.11863,-0.71384 0.32089,-1.98963 0.11341,-0.68346 0.0636,-0.21669 0.14705,0.0435 0.36451,0.1566 1.42767,0.66967 m -26.761292,-0.28858 0.47765,2.26302 0.31213,1.48843 c -0.23943,-0.15024 -0.43143,-0.4462 -0.62407,-0.65309 -0.45653,-0.4903 -0.90817,-0.98556 -1.36676,-1.47382 -0.1588,-0.16908 -0.32059,-0.33704 -0.4735,-0.51147 -0.0369,-0.0421 -0.14288,-0.12076 -0.13402,-0.1826 0.005,-0.0381 0.0634,-0.0613 0.0923,-0.0779 0.10464,-0.0602 0.21309,-0.11371 0.31894,-0.17171 0.29949,-0.16411 0.60587,-0.31547 0.91128,-0.46818 0.15008,-0.075 0.31898,-0.1876 0.48602,-0.21264 m 26.047462,4.13115 0.0724,-0.36452 0.17595,-0.74421 0.42171,-1.777 0.21087,-0.86572 0.47083,0.23465 0.97204,0.53568 0.31894,0.18576 0.10378,0.0934 -0.16459,0.19651 -0.50995,0.50061 -1.3733,1.33655 -0.69865,0.66827 m -27.125812,0.44045 c -0.24628,-0.11482 -0.47147,-0.41881 -0.66826,-0.60694 -0.44755,-0.42782 -0.913,-0.83976 -1.35175,-1.27639 -0.13922,-0.13855 -0.28155,-0.27484 -0.42526,-0.40871 -0.0759,-0.0707 -0.1629,-0.12755 -0.19745,-0.22917 0.4097,-0.22807 0.79194,-0.50513 1.19986,-0.73756 0.0895,-0.051 0.31668,-0.24588 0.42104,-0.22131 0.0606,0.0143 0.0767,0.14973 0.0897,0.19947 0.0558,0.21396 0.12649,0.42401 0.18226,0.63789 0.23064,0.88448 0.54562,1.75186 0.74985,2.64272 m 30.057102,-3.06798 0.72902,0.4607 0.98722,0.66321 c -0.049,0.10514 -0.15631,0.17555 -0.24301,0.24941 -0.16808,0.1432 -0.3381,0.28526 -0.5012,0.43405 -0.50412,0.45992 -1.0298,0.90053 -1.54918,1.34304 -0.21849,0.18616 -0.45364,0.48041 -0.71384,0.60103 l 0.27339,-0.83534 0.61503,-1.79219 0.25069,-0.74421 0.15188,-0.3797 m -31.636652,4.38934 c -0.25853,-0.11524 -0.49668,-0.39467 -0.71384,-0.57593 -0.50372,-0.42044 -1.00109,-0.84854 -1.50362,-1.27036 -0.17219,-0.14454 -0.34583,-0.28737 -0.51639,-0.4339 -0.0785,-0.0674 -0.17795,-0.12467 -0.21263,-0.22584 0.41428,-0.2383 0.78937,-0.5839 1.18467,-0.8558 0.094,-0.0646 0.31917,-0.29282 0.43704,-0.27946 0.0611,0.007 0.0857,0.14654 0.10328,0.19361 0.0808,0.21619 0.14832,0.43775 0.23139,0.65308 0.23198,0.60128 0.43452,1.21559 0.65128,1.82256 0.11111,0.31113 0.28351,0.64669 0.33882,0.97204 m 37.878922,9.32544 c 0.3137,-0.0726 0.62219,-0.20601 0.92647,-0.31128 0.41909,-0.14498 0.84152,-0.28029 1.26061,-0.42527 0.34363,-0.11887 0.68784,-0.23694 1.03278,-0.35192 0.17214,-0.0574 0.37092,-0.0978 0.53158,-0.18236 0.27018,-0.14215 0.51687,-0.45599 0.74422,-0.66061 0.0931,-0.0838 0.18536,-0.19458 0.30376,-0.24044 0.0385,0.113 0.14238,0.37922 0.24624,0.44214 0.0981,0.0594 0.23863,-0.0187 0.31413,0.10622 0.095,0.15716 -0.11311,0.25326 -0.0789,0.3781 0.0919,0.33506 0.41353,0.63772 0.44498,0.98723 -0.59617,0.11232 -1.19477,0.19695 -1.79219,0.29715 -0.25166,0.0422 -0.5551,0.0401 -0.78978,0.14958 -0.17714,0.0826 -0.34054,0.23141 -0.5012,0.34267 -0.4107,0.28441 -0.81729,0.575 -1.23023,0.85613 -0.17345,0.11809 -0.34166,0.26944 -0.53158,0.35929 0.10495,0.39293 0.36412,0.77078 0.51243,1.15429 0.36822,0.95216 0.70324,1.91321 0.96484,2.90091 1.00809,3.80624 1.10922,7.84136 0.31058,11.69477 -0.9933,4.79264 -3.44433,9.33619 -6.95178,12.75772 -2.01444,1.96509 -4.30461,3.58644 -6.83461,4.81874 -0.18967,0.0924 -0.39419,0.16795 -0.57714,0.27265 -0.10939,0.0626 -0.20124,0.14564 -0.31895,0.1962 -0.18573,0.0798 -0.38837,0.10784 -0.57715,0.18336 -5.11956,2.04789 -10.82131,2.3916 -16.14486,0.95151 -4.058892,-1.09798 -7.807822,-3.24599 -10.844252,-6.14945 -1.28513,-1.22885 -2.45601,-2.60506 -3.44262,-4.08498 -0.30186,-0.45279 -0.58374,-0.91069 -0.85361,-1.38211 -0.0687,-0.12003 -0.13635,-0.24168 -0.19943,-0.36474 -0.0224,-0.0437 -0.0456,-0.12479 -0.0951,-0.145 -0.0474,-0.0193 -0.11832,0.019 -0.16306,0.0339 -0.1268,0.0423 -0.25284,0.0869 -0.3797,0.129 -0.3606,0.11983 -0.71783,0.24931 -1.07835,0.36949 -0.13989,0.0466 -0.29734,0.14055 -0.44046,0.15957 v 0.0152 l 0.0304,0.0152 -0.6379,0.59098 -1.15429,1.07835 -0.51639,0.47295 -0.27338,0.28781 h -0.0456 c -0.051,-0.16186 -0.17235,-0.32127 -0.2544,-0.47083 -0.0263,-0.048 -0.10375,-0.14882 -0.019,-0.16707 v -0.0152 c -0.0861,-0.0186 -0.12333,-0.0983 -0.12151,-0.18226 -0.15919,-0.0999 -0.18762,-0.35194 -0.31536,-0.47982 -0.0692,-0.0693 -0.18203,-0.001 -0.24177,-0.1128 -0.0461,-0.086 -0.0117,-0.18507 0.0711,-0.22753 l -0.10632,-0.27338 c 0.1013,0.0161 0.20499,-0.0211 0.30376,-0.0424 0.11163,-0.0241 0.24488,-0.0338 0.34933,-0.0802 0.2093,-0.0929 0.40491,-0.27355 0.59233,-0.40474 0.81027,-0.56718 1.62488,-1.12884 2.43008,-1.70317 0.25557,-0.18229 0.51442,-0.36305 0.77459,-0.53874 0.0677,-0.0457 0.25959,-0.13609 0.27099,-0.22418 0.0157,-0.12102 -0.13957,-0.34263 -0.18774,-0.45426 -0.16654,-0.38602 -0.32332,-0.77615 -0.47168,-1.16948 -0.46803,-1.24083 -0.83314,-2.52748 -1.09317,-3.82738 -0.77716,-3.88506 -0.66998,-8.01466 0.42682,-11.83147 0.97009,-3.37588 2.58622,-6.51464 4.81555,-9.23432 1.61922,-1.97538 3.5561,-3.71919 5.70137,-5.10786 2.14129,-1.3861 4.48011,-2.47913 6.940922,-3.16317 7.42587,-2.0642 15.53678,-0.6575 21.77963,3.89458 2.13184,1.55447 4.02385,3.43718 5.57014,5.5763 0.39941,0.55255 0.78241,1.11719 1.13461,1.70106 0.16098,0.26688 0.36916,0.54303 0.47918,0.83534 m -26.32084,-11.84665 c 0.0259,0.0796 0.11077,0.28153 0.0603,0.35798 -0.0821,0.12431 -0.37578,0.0157 -0.45332,0.13698 -0.0346,0.0541 0.0271,0.22036 0.0437,0.27962 0.12164,-0.0236 0.243,-0.0486 0.36451,-0.0729 0.0385,-0.008 0.10157,-0.032 0.13891,-0.0111 0.097,0.0542 0.004,0.313 0.14996,0.30444 0.44472,-0.0261 0.89159,-0.143 1.33625,-0.18748 0.82804,-0.0828 1.65851,-0.13926 2.49084,-0.13926 v -1.06316 l -0.0152,-0.53158 c -0.32793,0.0781 -0.73965,0.0165 -1.07835,0.031 -0.67562,0.0288 -1.34871,0.0989 -2.02001,0.1793 -0.32762,0.0392 -0.70074,0.0553 -1.01669,0.15214 -0.13297,0.0408 0.0318,0.20842 -0.0519,0.27336 -0.11763,0.0913 -0.34275,0.0141 -0.45622,0.10864 -0.051,0.0425 -0.01,0.25221 0.0538,0.26776 0.11477,0.0281 0.34281,-0.0483 0.45339,-0.0857 m 20.59496,2.85534 c 0.0764,-0.27945 0.22041,-0.55103 0.32807,-0.82015 0.2375,-0.59372 0.48381,-1.18391 0.72295,-1.777 0.0839,-0.20806 0.17184,-0.41438 0.25515,-0.62271 0.0198,-0.0494 0.0479,-0.18512 0.10973,-0.19674 0.0889,-0.0167 0.26208,0.16547 0.33072,0.21596 0.30239,0.2224 0.60295,0.44796 0.8961,0.68246 0.0575,0.046 0.33539,0.21347 0.30108,0.29639 -0.0271,0.0656 -0.13982,0.12069 -0.19477,0.1619 -0.16777,0.12583 -0.33541,0.25202 -0.5012,0.38046 -0.52246,0.40473 -1.05197,0.80106 -1.57955,1.1991 -0.18914,0.1427 -0.43918,0.42077 -0.66828,0.48033 m -22.15932,-3.09835 c 0.0709,0.0679 0.15161,0.11241 0.20675,0.19744 0.16009,0.24692 0.1185,0.57614 -0.146,0.72903 0.0379,0.0796 0.11311,0.1279 0.18226,0.18028 0.15561,0.11787 0.38445,0.39863 0.59233,0.32092 l -0.31895,-1.54918 -0.51639,0.12151 m -1.86813,0.51639 c 0.0644,0.15211 0.20742,0.284 0.31234,0.41008 0.17988,0.21614 0.35244,0.43834 0.53402,0.65308 0.0572,0.0676 0.21254,0.34756 0.32855,0.22998 0.057,-0.0578 -0.0392,-0.26699 -0.056,-0.33629 -0.0714,-0.29442 -0.14877,-0.589 -0.22956,-0.88091 -0.0184,-0.0665 -0.0338,-0.26439 -0.10431,-0.29399 -0.0594,-0.0249 -0.16492,0.028 -0.22305,0.0446 -0.18827,0.0537 -0.37577,0.11291 -0.56196,0.17347 m 1.41249,0.28857 c 0.0543,-0.003 0.10202,-0.0145 0.15188,-0.0371 0.16532,-0.0748 0.21192,-0.34348 -10e-6,-0.39524 -0.0607,-0.0148 -0.21722,-0.0246 -0.23794,0.0549 -0.0136,0.0523 0.0159,0.11477 0.0287,0.16483 0.0182,0.0712 0.0386,0.14169 0.0574,0.21263 m -12.651632,-0.39489 0.9851,2.32377 0.31015,0.72903 0.16281,0.42526 c -0.26169,-0.10066 -0.51305,-0.34148 -0.74422,-0.50082 -0.52644,-0.36287 -1.04938,-0.73153 -1.57955,-1.0889 -0.18353,-0.12371 -0.36667,-0.24968 -0.54677,-0.37832 -0.0489,-0.0349 -0.17456,-0.0915 -0.18345,-0.15758 -0.006,-0.0438 0.0496,-0.0814 0.0772,-0.10702 0.0888,-0.0826 0.18227,-0.16054 0.27332,-0.24065 0.25251,-0.2222 0.51447,-0.4336 0.77459,-0.6467 0.14749,-0.12083 0.29966,-0.27281 0.47082,-0.35807 m 10.06966,0.5164 c 0.0114,0.0671 0.10117,0.20744 0.0636,0.2674 -0.0771,0.12311 -0.39832,0.0887 -0.44773,0.22496 -0.0239,0.0658 0.0565,0.19029 0.0804,0.25185 0.12045,-0.0285 0.31814,-0.17537 0.43844,-0.15215 0.0583,0.0112 0.0772,0.10598 0.0966,0.15215 0.0177,0.0421 0.0575,0.1023 0.0459,0.14986 -0.0249,0.10195 -0.34097,0.16779 -0.42897,0.21465 l 0.16404,0.41008 0.0831,0.13485 0.25403,-0.0863 0.20347,-0.11138 0.0117,-0.39286 0.0582,-1.2758 -0.62271,0.21264 m 29.920412,1.45805 -0.2582,0.20389 -0.53158,0.34794 -1.68587,1.10366 -0.50121,0.32645 -0.30376,0.17476 c 0.37993,-0.91249 0.86031,-1.80406 1.30243,-2.68828 0.10333,-0.20668 0.20041,-0.41602 0.30376,-0.62271 0.0226,-0.0452 0.0671,-0.1909 0.12848,-0.19221 0.048,-10e-4 0.0997,0.0614 0.13346,0.0896 0.10138,0.0847 0.20648,0.16633 0.30376,0.25576 0.22467,0.20652 0.45887,0.40283 0.68406,0.60901 0.13927,0.12751 0.27082,0.28372 0.42467,0.3921 M 100.265,129.48955 v 0.56196 l 0.33414,-0.10632 c -0.0583,-0.15159 -0.21292,-0.34796 -0.33414,-0.45564 m -13.547722,32.68463 c 0.26472,-0.0845 0.53277,-0.34961 0.7594,-0.50995 0.49958,-0.35344 1.00011,-0.70637 1.50362,-1.05404 1.81978,-1.2565 3.63802,-2.52035 5.43731,-3.80608 0.60829,-0.43468 1.22588,-0.85697 1.83775,-1.28653 0.18173,-0.12758 0.36821,-0.24909 0.54677,-0.3811 0.0647,-0.0478 0.17103,-0.0948 0.2122,-0.16599 0.0312,-0.0538 0.002,-0.12198 -0.008,-0.17769 -0.0236,-0.13089 -0.0418,-0.26319 -0.0613,-0.39489 -0.0344,-0.23256 -0.0476,-0.46554 -0.0698,-0.69865 -0.0208,-0.21892 -0.0644,-0.46612 -0.0126,-0.68346 0.55422,0.13231 1.15183,0.15471 1.71625,0.23426 0.16173,0.0228 0.32496,0.0397 0.48602,0.0658 0.0809,0.0131 0.19278,0.0474 0.27338,0.0261 0.0778,-0.0205 0.1471,-0.0895 0.21263,-0.13375 0.1637,-0.11054 0.32515,-0.22525 0.486022,-0.33988 0.15037,-0.10715 0.42066,-0.22632 0.51639,-0.38412 l -2.278202,0.27082 -1.00241,0.11761 -0.41008,0.052 c -0.0366,-0.15366 -0.0152,-0.32863 -0.0152,-0.48602 0,-0.42309 0.0452,-0.85833 0.11523,-1.27579 0.11927,-0.71127 0.29047,-1.39684 0.52015,-2.08076 0.055,-0.16388 0.12057,-0.3255 0.18478,-0.48602 0.0187,-0.0468 0.0399,-0.14406 0.0944,-0.16205 0.0784,-0.0259 0.25274,0.13527 0.3157,0.17724 0.28777,0.19185 0.57612,0.38285 0.86572,0.57192 0.78078,0.50973 1.555072,1.02962 2.338962,1.53454 0.21899,0.14106 0.43562,0.28663 0.65308,0.42999 0.0755,0.0498 0.18208,0.15533 0.27339,0.16732 0.10637,0.014 0.26572,-0.15691 0.34932,-0.21292 0.25602,-0.17154 0.50875,-0.35016 0.7594,-0.52946 0.0964,-0.069 0.24905,-0.13807 0.30376,-0.24514 -1.42126,-0.4562 -2.82127,-0.98084 -4.237462,-1.45299 -0.38568,-0.12859 -0.77241,-0.25961 -1.15429,-0.39914 -0.0979,-0.0358 -0.34987,-0.068 -0.41413,-0.14855 -0.0366,-0.0459 0.0322,-0.14335 0.0521,-0.1864 0.0829,-0.17952 0.16731,-0.35924 0.26444,-0.53158 0.4124,-0.73169 0.85316,-1.42728 1.40374,-2.06557 0.14753,-0.17102 0.29589,-0.34144 0.45564,-0.5012 0.0375,-0.0375 0.117582,-0.15181 0.179622,-0.13356 0.099,0.0291 0.21695,0.26485 0.27795,0.34619 l 0.74037,0.98722 1.87724,2.50602 c 0.32064,0.42752 0.67093,0.84481 0.96484,1.29098 0.16991,-0.0328 0.3465,-0.20638 0.48602,-0.3059 0.32191,-0.22962 0.64508,-0.4589 0.97203,-0.68132 -0.0733,-0.1504 -0.29551,-0.27285 -0.42527,-0.37666 l -1.01759,-0.81483 c -0.85649,-0.68514 -1.71158,-1.37182 -2.56678,-2.05875 -0.2684,-0.2156 -0.53776,-0.43005 -0.80496,-0.64717 -0.13891,-0.11287 -0.28101,-0.25865 -0.44046,-0.34004 0.26763,-0.33618 0.66215,-0.61964 1.00241,-0.87915 0.64946,-0.49533 1.34834,-0.94226 2.09595,-1.27544 0.2226,-0.0992 0.44765,-0.2262 0.68346,-0.29069 l 0.44806,1.97445 1.05555,4.66272 0.85053,-0.40569 0.78978,-0.29296 v -0.0152 c -0.27995,-0.39323 -0.46694,-0.89161 -0.68738,-1.32136 -0.50687,-0.98817 -1.0168,-1.97482 -1.52614,-2.96166 -0.28325,-0.5488 -0.52227,-1.1605 -0.86965,-1.67068 2.66895,-1.03518 5.59678,-0.93683 8.2471,0.0911 l -2.03537,3.62993 -0.57963,1.03279 -0.24035,0.44045 c 0.42594,-0.0629 0.88526,-0.28064 1.29098,-0.42603 0.11747,-0.0421 0.36324,-0.0731 0.44284,-0.17229 0.048,-0.0598 0.0553,-0.16464 0.0757,-0.23702 0.054,-0.19147 0.10009,-0.3851 0.15204,-0.57714 0.17929,-0.66277 0.35753,-1.32592 0.53332,-1.98964 0.10855,-0.40985 0.20981,-0.82238 0.3257,-1.23023 0.0237,-0.0835 0.0519,-0.36668 0.13243,-0.40679 0.0484,-0.0241 0.13163,0.0331 0.17573,0.0514 0.16554,0.0688 0.32574,0.15 0.48602,0.23014 0.68932,0.34466 1.33478,0.75701 1.94407,1.22867 0.16644,0.12884 0.32792,0.26561 0.48601,0.40453 0.0351,0.0308 0.15075,0.10795 0.14229,0.16151 -0.008,0.0494 -0.0912,0.0931 -0.1271,0.12097 -0.11742,0.0913 -0.23317,0.18526 -0.34932,0.27818 -0.30284,0.24226 -0.60804,0.48135 -0.91128,0.72297 -0.1438,0.11457 -0.32479,0.22454 -0.44046,0.36753 l 0.7594,-0.25053 0.37707,-0.13907 0.27958,-0.35461 0.51283,-0.68346 h 0.0152 l 0.39055,0.39489 0.18659,0.17045 0.21264,-0.0511 0.48601,-0.16491 1.88332,-0.63789 6.42453,-2.1794 1.92888,-0.65064 0.98722,-0.34426 c -0.84183,-1.58169 -2.01826,-3.02383 -3.23369,-4.32859 -1.2371,-1.32802 -2.65335,-2.51392 -4.17806,-3.49901 -1.73689,-1.12216 -3.60102,-2.04691 -5.57401,-2.67728 -5.94719,-1.90012 -12.54017,-1.37446 -18.073742,1.54847 -2.15011,1.13573 -4.16432,2.6101 -5.84679,4.36963 -1.57058,1.6425 -2.90698,3.47206 -3.968,5.48287 -2.15646,4.08684 -3.02605,8.87773 -2.47666,13.45659 0.20265,1.68896 0.56169,3.36147 1.13293,4.96648 0.19774,0.5556 0.37096,1.17167 0.66359,1.68588 m 15.188032,-32.62388 0.13669,0.57715 0.36451,-0.0911 c -0.0807,-0.16939 -0.34774,-0.37791 -0.5012,-0.48602 m -3.964082,0.34933 0.68346,1.41248 0.2582,-0.0911 -0.23354,-0.60753 -0.35879,-0.86571 -0.34933,0.15188 m -1.09354,0.5012 c 0.0537,0.0932 0.21007,0.13177 0.30376,0.17851 0.26057,0.12996 0.52099,0.27154 0.78978,0.38345 -0.0285,-0.21819 -0.21287,-0.47118 -0.31135,-0.66827 -0.0261,-0.0522 -0.0606,-0.18316 -0.1307,-0.18685 -0.0619,-0.003 -0.14159,0.0511 -0.19585,0.0772 -0.14958,0.0717 -0.29871,0.16247 -0.45564,0.216 m 3.386932,0.27339 c 0.22485,-0.0115 0.5581,-0.14185 0.7594,-0.24301 -0.0281,-0.0612 -0.0844,-0.15374 -0.1521,-0.17689 -0.043,-0.0147 -0.0956,0.0107 -0.13647,0.0232 -0.11289,0.0346 -0.34951,0.0744 -0.42918,0.16355 -0.0446,0.05 -0.0335,0.16852 -0.0417,0.23311 m -12.849062,-0.30376 c 0.37458,0.80223 0.84429,1.57952 1.27368,2.35414 0.13128,0.23682 0.25904,0.47549 0.3875,0.71384 0.0648,0.1202 0.16116,0.24595 0.19175,0.3797 -0.27963,-0.0891 -0.55104,-0.31693 -0.80496,-0.46439 -0.5847,-0.33954 -1.16678,-0.68469 -1.74662,-1.0324 -0.19645,-0.11781 -0.39235,-0.23996 -0.59234,-0.35146 -0.0553,-0.0308 -0.18835,-0.0774 -0.20738,-0.14419 -0.0132,-0.0465 0.0428,-0.0901 0.0708,-0.1187 0.0819,-0.0836 0.16333,-0.16817 0.24734,-0.24967 0.28152,-0.27314 0.54989,-0.5626 0.84613,-0.81993 0.10193,-0.0885 0.19895,-0.23158 0.33414,-0.26694 m 8.24709,0.72902 c 0.34752,0.25759 0.67982,0.53777 1.0176,0.808 0.0784,0.0627 0.25242,0.26566 0.36225,0.20259 0.10457,-0.0601 -0.0599,-0.28401 -0.0965,-0.3575 -0.17966,-0.36165 -0.33573,-0.74488 -0.53918,-1.09354 l -0.53159,0.28041 -0.21263,0.16004 m 1.42768,-0.10632 c 0.0397,0.22293 0.21002,0.46561 0.31135,0.66828 0.0257,0.0513 0.0638,0.18309 0.13196,0.18861 0.0613,0.005 0.14169,-0.0558 0.19458,-0.0823 0.14647,-0.0732 0.29805,-0.16723 0.45564,-0.21263 -0.0542,-0.0956 -0.20849,-0.13463 -0.30376,-0.18225 -0.26035,-0.13016 -0.52106,-0.26782 -0.78977,-0.37971 m 32.304922,0.0304 c 0.27366,0.37916 0.69219,0.71256 1.01895,1.04857 0.12954,0.13321 0.31539,0.28487 0.39354,0.45504 -0.70778,0.37243 -1.42291,0.73299 -2.12633,1.11342 -0.36421,0.19697 -0.77195,0.48809 -1.16948,0.60283 0.0203,-0.10527 0.0951,-0.19648 0.14762,-0.28857 0.10428,-0.18292 0.20903,-0.36567 0.31635,-0.54677 0.31551,-0.53243 0.61904,-1.07304 0.92684,-1.60993 0.10736,-0.18726 0.212,-0.37647 0.32239,-0.56196 0.0472,-0.0794 0.0785,-0.17847 0.17012,-0.21263 m -34.385682,2.29339 0.45564,-0.27338 -0.28857,-1.68587 c -0.14996,0.0478 -0.29189,0.16635 -0.42527,0.24944 -0.0421,0.0262 -0.12859,0.0619 -0.13848,0.11665 -0.0165,0.0914 0.15638,0.17672 0.10991,0.26686 -0.0954,0.1851 -0.57645,0.21794 -0.28251,0.4859 0.11151,0.10166 0.30327,-0.17466 0.41679,-0.18994 0.0752,-0.0101 0.17314,0.16667 0.20019,0.22515 0.0702,0.15169 -0.31357,0.21118 -0.33808,0.33754 -0.009,0.046 0.0392,0.0983 0.0626,0.13352 0.0746,0.11233 0.14928,0.22447 0.22782,0.33413 m 0.65308,-1.67068 0.10632,0.53158 0.31895,-0.16707 v -0.0304 l -0.42527,-0.33414 m -7.94333,3.49325 c -0.26914,-0.048 -0.56041,-0.26879 -0.80497,-0.39114 -0.56753,-0.28394 -1.14161,-0.56024 -1.70106,-0.85996 -0.18523,-0.0992 -0.37554,-0.18923 -0.56195,-0.28627 -0.0566,-0.0294 -0.1795,-0.0632 -0.21019,-0.1227 -0.0374,-0.0726 0.20012,-0.28972 0.24705,-0.34475 0.24274,-0.28458 0.49922,-0.55664 0.74547,-0.83791 0.0532,-0.0608 0.19544,-0.26768 0.27942,-0.26768 0.0641,0 0.11794,0.13335 0.14702,0.17912 0.11596,0.18248 0.23441,0.36353 0.34915,0.54677 0.33757,0.53911 0.68402,1.07283 1.02485,1.60993 0.15547,0.245 0.38249,0.50358 0.48521,0.77459 m 8.17115,-2.36934 0.65309,-0.3797 c -0.0384,-0.0541 -0.0947,-0.12482 -0.16707,-0.13043 -0.0745,-0.006 -0.16737,0.073 -0.22782,0.11044 -0.1744,0.10805 -0.3577,0.16389 -0.2582,0.39969 m -4.29821,3.37174 c 0.41569,-0.51552 1.00203,-0.93963 1.50362,-1.36891 0.29904,-0.25593 0.61462,-0.49245 0.92647,-0.73233 0.14406,-0.11082 0.29308,-0.216 0.44045,-0.32239 0.0447,-0.0323 0.1396,-0.076 0.15588,-0.13289 0.0221,-0.0773 -0.10783,-0.20912 -0.14822,-0.26845 l -0.51639,-0.7594 c -0.0386,-0.0567 -0.14362,-0.26742 -0.22172,-0.25961 -0.0683,0.007 -0.15653,0.0969 -0.21121,0.13597 -0.17355,0.12415 -0.34629,0.24949 -0.51639,0.37832 -0.63777,0.48305 -1.23442,1.00701 -1.83775,1.53106 -0.17954,0.15595 -0.34253,0.32915 -0.51639,0.49111 -0.0562,0.0523 -0.17125,0.11849 -0.19044,0.19744 -0.0186,0.0765 0.18614,0.22488 0.236,0.27474 0.19506,0.19507 0.39749,0.38232 0.59233,0.57715 0.087,0.087 0.18229,0.2241 0.30376,0.25819 m 8.824852,-3.6024 c 0.12729,-0.0101 0.30191,0.0834 0.42466,0.11693 0.36554,0.0998 0.72994,0.20386 1.09354,0.31064 0.11631,0.0342 0.39556,0.0577 0.47656,0.14791 0.0457,0.0509 -0.0186,0.14975 -0.0371,0.20195 -0.0544,0.15361 -0.11078,0.30551 -0.17484,0.45564 -0.0217,0.0508 -0.0363,0.13648 -0.0883,0.16599 -0.0635,0.036 -0.21795,-0.0425 -0.28264,-0.0636 -0.25575,-0.0835 -0.51481,-0.16672 -0.77459,-0.23642 -0.0659,-0.0177 -0.21552,-0.10075 -0.27901,-0.0644 -0.0741,0.0424 -0.12121,0.1737 -0.16524,0.24404 -0.12961,0.20705 -0.25639,0.41583 -0.38624,0.62271 -0.0454,0.0722 -0.12499,0.26943 -0.218142,0.28172 -0.10175,0.0134 -0.26382,-0.12555 -0.34867,-0.17442 -0.086,-0.0495 -0.3554,-0.13081 -0.3837,-0.232 -0.0239,-0.0856 0.12694,-0.2465 0.17031,-0.31576 0.19067,-0.30446 0.38241,-0.60843 0.57579,-0.91128 0.0874,-0.13686 0.176882,-0.27253 0.263182,-0.41007 0.031,-0.0494 0.0675,-0.13426 0.13443,-0.13954 m 31.92462,1.77984 c -0.0493,0.0948 -0.17956,0.12534 -0.27339,0.1642 -0.22378,0.0927 -0.44399,0.19385 -0.66827,0.28542 -0.61628,0.25162 -1.22461,0.52478 -1.83775,0.78403 -0.29233,0.12361 -0.58997,0.29256 -0.8961,0.37628 0.11648,-0.3072 0.41464,-0.61594 0.60928,-0.8809 0.38611,-0.5256 0.75524,-1.06448 1.13521,-1.59475 0.13749,-0.19187 0.27112,-0.38665 0.41044,-0.57714 0.0334,-0.0457 0.0931,-0.1732 0.16456,-0.15566 0.12337,0.0303 0.28653,0.30317 0.36879,0.39867 0.22287,0.25872 0.43976,0.52313 0.65309,0.78978 0.10684,0.13354 0.20651,0.29679 0.33414,0.41007 m -45.761522,2.5364 c -0.31044,-0.0465 -0.65177,-0.25171 -0.94165,-0.37325 -0.60553,-0.2539 -1.21702,-0.49335 -1.82256,-0.74725 -0.21174,-0.0888 -0.42475,-0.17634 -0.6379,-0.26161 -0.0495,-0.0198 -0.18729,-0.0485 -0.19924,-0.10973 -0.0169,-0.0868 0.17139,-0.27786 0.22242,-0.34591 0.24517,-0.32692 0.48774,-0.65518 0.74266,-0.97461 0.0737,-0.0924 0.14541,-0.18609 0.221,-0.27702 0.0246,-0.0296 0.0585,-0.0834 0.1045,-0.0658 0.0678,0.0259 0.12924,0.15206 0.17102,0.20875 0.14148,0.19194 0.28492,0.3831 0.42351,0.57714 0.38278,0.53591 0.77698,1.06462 1.16772,1.59474 0.16923,0.2296 0.45876,0.50394 0.54852,0.77459 M 102.224,134.18727 c 0.21464,-0.0202 0.44292,0.0254 0.65309,0.0657 1.27116,0.24367 2.22305,1.13446 2.46985,2.42057 0.0461,0.2405 0.0973,0.49726 0.0804,0.74422 -0.0269,0.39357 -0.0975,0.79215 -0.25959,1.15429 -0.45442,1.01514 -1.52754,1.79178 -2.63997,1.91105 -0.70778,0.0759 -1.41119,-0.0101 -2.03519,-0.37496 -1.382822,-0.80851 -1.973112,-2.65712 -1.243932,-4.08768 0.59121,-1.1599 1.732372,-1.71646 2.975362,-1.83319 m 22.64535,0.0258 c -0.26192,0.28436 -0.5052,0.58785 -0.75743,0.8809 -0.0591,0.0687 -0.24681,0.22303 -0.24244,0.31835 0.005,0.10149 0.24617,0.25125 0.3164,0.31977 0.3029,0.29548 0.60419,0.58998 0.89669,0.89587 0.89908,0.94022 1.7326,1.9543 2.45481,3.03761 0.2273,0.34095 0.45476,0.68199 0.6665,1.03278 0.0608,0.10068 0.14416,0.34127 0.25264,0.39305 0.0904,0.0432 0.31621,-0.0818 0.40727,-0.11216 0.36808,-0.12269 0.73394,-0.27178 1.10873,-0.37202 -0.0336,-0.18634 -0.1985,-0.38461 -0.29459,-0.54677 -0.24453,-0.41263 -0.50252,-0.81596 -0.76857,-1.21504 -0.77774,-1.1666 -1.67199,-2.24111 -2.62617,-3.26542 -0.29311,-0.31465 -0.59799,-0.61953 -0.91264,-0.91264 -0.1633,-0.15212 -0.31635,-0.32789 -0.5012,-0.45428 m 8.73311,1.95925 -2.05039,0.72434 -1.48842,0.52108 c 0.0781,-0.23172 0.35088,-0.44909 0.50418,-0.6379 0.42492,-0.52334 0.87496,-1.02617 1.30022,-1.54918 0.13793,-0.16964 0.28287,-0.33421 0.42407,-0.5012 0.0392,-0.0464 0.0987,-0.15741 0.16849,-0.15741 0.0928,0 0.24697,0.28417 0.29925,0.35485 0.20235,0.27357 0.40074,0.55226 0.58947,0.83534 0.0851,0.12773 0.20631,0.26315 0.25313,0.41008 m -48.419422,2.20226 c -0.24433,-0.036 -0.49324,-0.13898 -0.72902,-0.21224 -0.33341,-0.1036 -0.669,-0.20017 -1.00241,-0.30376 -0.58584,-0.18203 -1.23145,-0.29861 -1.79219,-0.54716 0.23323,-0.44279 0.52762,-0.85977 0.80497,-1.27579 l 0.21263,-0.31895 c 0.0227,-0.0339 0.0518,-0.0981 0.0947,-0.11009 0.0594,-0.0166 0.13054,0.10434 0.16349,0.14047 0.1446,0.15855 0.28022,0.32554 0.42273,0.48601 0.43022,0.48442 0.84854,0.98084 1.26964,1.47324 0.17165,0.20072 0.45247,0.42504 0.55545,0.66827 m 16.858712,-2.65146 c -0.28126,0.037 -0.53628,0.10784 -0.77459,0.2699 -0.19224,0.13072 -0.34852,0.28986 -0.47813,0.48306 -0.78099,1.16421 0.32982,2.66195 1.64761,2.48842 0.19807,-0.0261 0.4073,-0.10477 0.57714,-0.20862 0.96837,-0.59209 1.08803,-2.0969 0.12151,-2.75448 -0.15655,-0.10651 -0.33294,-0.18523 -0.5164,-0.23116 -0.18406,-0.0461 -0.38751,-0.072 -0.57714,-0.0471 m 18.90909,2.56034 v 0.0152 c -0.17676,0.24126 -0.34575,0.48851 -0.52365,0.72903 -0.0417,0.0563 -0.12204,0.22199 -0.20544,0.21002 -0.0719,-0.0103 -0.15566,-0.0976 -0.21257,-0.13972 -0.15545,-0.11497 -0.31364,-0.22671 -0.47083,-0.33928 -0.0454,-0.0325 -0.18358,-0.17261 -0.24241,-0.14041 -0.0836,0.0457 -0.14936,0.19707 -0.2053,0.2727 -0.16364,0.22126 -0.32518,0.44438 -0.48525,0.66827 -0.37806,0.52878 -0.76365,1.05236 -1.14393,1.57955 -0.20088,0.27849 -0.44426,0.55067 -0.61139,0.85053 l -0.34933,-0.22137 -0.80496,-0.58359 0.15188,-0.2582 0.36451,-0.5012 1.30847,-1.80738 0.45159,-0.62271 0.14542,-0.24163 -0.21961,-0.18187 -0.66827,-0.48778 c 0.0592,-0.25212 0.35323,-0.53652 0.50684,-0.74421 0.0398,-0.0537 0.11894,-0.22058 0.19323,-0.22317 0.0717,-0.002 0.17109,0.10112 0.2264,0.14084 0.19301,0.13862 0.3851,0.27873 0.57714,0.41876 0.73575,0.53649 1.50408,1.04185 2.21746,1.60764 m 12.8035,-1.9137 0.73979,1.19986 0.33856,0.60752 c -0.77986,0.28636 -1.62794,0.45359 -2.43009,0.67057 -0.29902,0.0809 -0.59821,0.16218 -0.89609,0.24711 -0.16577,0.0473 -0.34441,0.11624 -0.51639,0.13029 0.13339,-0.25713 0.45164,-0.48825 0.65249,-0.69865 0.45987,-0.48172 0.9186,-0.96495 1.38249,-1.44286 0.16211,-0.16701 0.32182,-0.33601 0.48621,-0.5012 0.0759,-0.0763 0.13812,-0.17695 0.24303,-0.21264 m -52.231612,1.16948 0.7594,0.71324 1.24542,1.18527 0.56196,0.53158 0.22782,0.243 -1.21505,-0.26694 -2.56677,-0.58358 c 0.0844,-0.24694 0.24342,-0.48262 0.36414,-0.71384 0.1911,-0.36607 0.37633,-0.77725 0.62308,-1.10873 m 1.71625,4.40453 -0.78978,-0.11501 -1.57956,-0.24828 -0.8809,-0.14089 -0.36451,-0.073 0.28531,-0.68346 0.50446,-1.07835 c 0.22639,0.10091 0.43058,0.33572 0.62271,0.49193 0.47979,0.39007 0.94953,0.79252 1.42768,1.18461 l 0.51639,0.42527 c 0.0844,0.0692 0.2061,0.14048 0.2582,0.23715 m 52.732812,-1.50362 c 0.22373,0.39174 0.37406,0.8425 0.54144,1.26061 0.12045,0.30089 0.2884,0.62431 0.35465,0.94166 l -1.1846,0.0935 -1.853,0.14811 -1.15429,0.0925 -0.0304,-0.0759 c 0.73075,-0.5412 1.45959,-1.08517 2.18708,-1.63079 0.35768,-0.26826 0.73522,-0.63863 1.1391,-0.82967 m -53.294772,3.49325 c -0.86568,-0.0684 -1.7322,-0.14259 -2.59715,-0.22524 -0.41008,-0.0392 -0.87956,-0.0127 -1.2758,-0.12408 l 0.37625,-1.09354 0.33759,-0.86572 c 0.33916,0.16044 0.65541,0.45325 0.95685,0.67621 0.47217,0.34924 0.95545,0.68351 1.42767,1.03278 0.18564,0.13731 0.37477,0.27077 0.56196,0.40601 0.0744,0.0538 0.18295,0.10207 0.21263,0.19358 m 24.574222,4.34377 c 0.1505,-0.0123 0.29807,-0.0842 0.44045,-0.13163 0.27884,-0.0929 0.55817,-0.18537 0.83534,-0.28313 0.10067,-0.0355 0.34684,-0.0672 0.4096,-0.15705 0.054,-0.0774 -0.0113,-0.33821 -0.0234,-0.4306 -0.0454,-0.3451 -0.0719,-0.70061 -0.0962,-1.04797 -0.0699,-0.99811 -0.17577,-1.99606 -0.27216,-2.99204 -0.0497,-0.51363 -0.031,-1.07828 -0.15446,-1.57955 -0.11739,0.0356 -0.11054,0.28782 -0.12774,0.39489 -0.065,0.40482 -0.13275,0.80958 -0.19538,1.21504 -0.17068,1.10504 -0.36753,2.20614 -0.53809,3.31099 -0.0868,0.56221 -0.14185,1.14874 -0.27789,1.70105 m 23.66294,-5.90814 c -0.34357,0.21548 -0.66831,0.46365 -1.00241,0.69347 -0.08,0.0551 -0.31476,0.16548 -0.33621,0.2648 -0.014,0.0646 0.0513,0.16944 0.0782,0.2264 0.0779,0.16483 0.16001,0.33224 0.22765,0.5012 0.25801,0.64448 0.48002,1.29826 0.69099,1.95926 0.45155,1.41477 0.74471,2.91191 0.88599,4.38934 0.0479,0.50091 0.0732,1.00224 0.10754,1.50361 0.0138,0.20167 -0.026,0.42727 0.0317,0.62271 0.35143,-0.0837 0.79287,-0.0152 1.15429,-0.0152 0.0735,0 0.34837,0.0454 0.39446,-0.01 0.0319,-0.0382 0.0156,-0.12634 0.0156,-0.17255 0,-0.16324 -0.003,-0.32358 -0.0138,-0.48602 -0.0417,-0.60879 -0.0608,-1.21515 -0.13371,-1.82256 -0.22906,-1.90889 -0.63948,-3.77584 -1.2848,-5.5892 -0.16597,-0.46634 -0.35357,-0.92235 -0.53602,-1.38211 -0.0867,-0.21854 -0.14917,-0.48745 -0.27946,-0.68346 m 5.99927,0.44046 c 0.13676,0.20379 0.18837,0.49706 0.26569,0.72902 0.15792,0.47377 0.36881,0.992 0.43296,1.48843 -0.32866,0.0782 -0.72558,0.007 -1.06317,0.0154 -0.72315,0.0177 -1.44784,0.0301 -2.17188,0.0301 -0.24277,0 -0.50438,0.0391 -0.74422,0.0109 -0.0791,-0.009 -0.23107,0.0202 -0.23008,-0.10133 6.2e-4,-0.0755 0.14398,-0.13107 0.19971,-0.16341 0.20974,-0.12175 0.41649,-0.25144 0.62271,-0.3792 0.88499,-0.54831 1.76945,-1.14083 2.68828,-1.62992 m -7.4877,0.59233 c -2.47416,1.68311 -4.90609,3.42955 -7.36619,5.13318 -0.71539,0.49541 -1.4282,0.99462 -2.14151,1.49305 -0.19695,0.13762 -0.39373,0.27584 -0.59233,0.41105 -0.0766,0.0522 -0.21323,0.11609 -0.26142,0.19678 -0.0354,0.0592 0.02,0.16392 0.0378,0.22326 0.0555,0.18508 0.0824,0.37466 0.12441,0.56195 0.12119,0.54012 0.12273,1.16394 0.0986,1.71625 -0.093,2.12493 -0.713,4.16131 -1.89791,5.93852 -0.26978,0.40464 -0.56996,0.78619 -0.88736,1.15429 -0.096,0.11128 -0.25148,0.35722 -0.38827,0.41127 -0.0817,0.0323 -0.21754,-0.2035 -0.26156,-0.25939 -0.24424,-0.31018 -0.49135,-0.61818 -0.73798,-0.92647 -0.74321,-0.92905 -1.48122,-1.86238 -2.22043,-2.7946 -0.21004,-0.26487 -0.40336,-0.54209 -0.61364,-0.80496 -0.0703,-0.0878 -0.15589,-0.25347 -0.25647,-0.30638 -0.0751,-0.0395 -0.22572,0.10929 -0.28423,0.15024 -0.27388,0.19171 -0.55811,0.37368 -0.82015,0.58145 -0.27532,0.21829 -0.56531,0.43491 -0.88091,0.59273 -0.34667,0.17336 -0.72737,0.27239 -1.09354,0.39444 -0.50725,0.16909 -1.01036,0.35096 -1.5188,0.5164 0.0311,0.24631 0.11832,0.57836 0.0607,0.82015 0.0688,0 0.0644,0.21438 0.0734,0.27338 0.0459,0.30017 0.0962,0.62339 0.10885,0.92647 0.0142,0.34029 0.0886,0.67889 0.1215,1.0176 0.069,0.71005 0.17398,1.4163 0.24301,2.12632 0.0257,0.26397 0.0456,0.54476 0.0962,0.80497 0.0112,0.0575 0.0625,0.2551 0.0228,0.30123 -0.04,0.0466 -0.21291,0.0177 -0.27085,0.0177 -0.26376,0 -0.52849,-0.0202 -0.78978,-0.0456 -0.76907,-0.0748 -1.55408,-0.18389 -2.29339,-0.43033 -0.2631,-0.0877 -0.53146,-0.16933 -0.78977,-0.27338 -0.16464,-0.0663 -0.34385,-0.17124 -0.5164,-0.20757 0.17982,-0.38014 0.47563,-0.72485 0.70333,-1.07835 0.51852,-0.80501 1.05058,-1.60173 1.57993,-2.3997 0.21182,-0.31932 0.44333,-0.62901 0.64122,-0.95685 0.12686,-0.21015 0.27145,-0.51277 0.46245,-0.66827 v -0.0152 c -0.18597,-0.0191 -0.43131,0.11846 -0.60752,0.17719 -0.47152,0.15718 -0.95341,0.30309 -1.41248,0.49108 v 0.0152 c 0.0426,0.0778 -0.0414,0.22327 -0.0683,0.30376 -0.0892,0.26767 -0.17139,0.53767 -0.26082,0.80497 -0.36695,1.09675 -0.75837,2.18526 -1.12897,3.28061 -0.76987,-0.39411 -1.51637,-0.79425 -2.20227,-1.3278 -0.25935,-0.20176 -0.52172,-0.40851 -0.75744,-0.63789 -0.11852,-0.11533 -0.21986,-0.25616 -0.35128,-0.35808 v -0.0152 l 0.95684,-0.74421 v -0.0152 c -0.25266,0.005 -0.52448,0.15896 -0.7594,0.24301 l -0.0304,0.0304 -0.2582,0.39488 h -0.0152 c -0.0411,-0.0658 -0.131802,-0.23884 -0.214052,-0.25056 -0.0762,-0.0109 -0.18614,0.0407 -0.25678,0.0662 -0.17133,0.0618 -0.34498,0.11685 -0.51639,0.17845 -0.5732,0.20599 -1.15602,0.38611 -1.73144,0.58576 -2.34796,0.81463 -4.70555,1.60641 -7.06243,2.39448 -0.59815,0.2 -1.1963,0.40061 -1.79218,0.60735 -0.14116,0.049 -0.28353,0.0947 -0.42527,0.14192 -0.0467,0.0156 -0.14033,0.0318 -0.16462,0.0806 -0.0272,0.0546 0.0624,0.15971 0.0887,0.20542 0.11855,0.20623 0.25501,0.39726 0.38961,0.59234 0.54823,0.79462 1.07998,1.58383 1.68433,2.33895 2.55956,3.19808 6.09768,5.69727 9.93979,7.10719 2.668602,0.97928 5.455272,1.42476 8.277472,1.45835 0.9647,0.0115 1.94412,-0.0888 2.90091,-0.2078 5.63709,-0.7014 10.96746,-3.61679 14.64995,-7.93247 1.46289,-1.71444 2.69218,-3.63336 3.60393,-5.69551 0.90444,-2.04561 1.54561,-4.23123 1.81185,-6.45491 0.38209,-3.19124 0.17955,-6.42743 -0.72493,-9.52289 -0.21028,-0.71966 -0.45108,-1.43 -0.7294,-2.12633 -0.0997,-0.2494 -0.15387,-0.59388 -0.32502,-0.80496 m -50.652052,0.3797 0.77459,0.48682 1.48842,0.92567 0.62271,0.38805 0.31895,0.21947 -3.81219,0.0304 c 0.11213,-0.49032 0.25452,-0.97403 0.39077,-1.45805 0.0465,-0.16524 0.0861,-0.47747 0.21675,-0.59233 m 58.883962,1.41249 0.16068,0.60752 0.34052,1.56436 -0.44067,-0.0128 -0.78956,-0.0466 -1.98963,-0.10902 -0.95684,-0.0594 c 0.0297,-0.095 0.16014,-0.12913 0.24301,-0.17083 0.22458,-0.113 0.44347,-0.23684 0.66827,-0.34931 0.62758,-0.31398 1.24451,-0.65031 1.86813,-0.97221 0.29016,-0.14978 0.58478,-0.3511 0.89609,-0.45171 m -55.967862,2.58196 c -0.043,0.0608 -0.12917,0.0453 -0.19745,0.0543 -0.18537,0.0244 -0.37528,0.0222 -0.56136,0.0404 -0.77163,0.0753 -1.55215,0.0934 -2.32178,0.18567 -0.2206,0.0265 -0.44887,0.0482 -0.67085,0.054 -0.0524,0.001 -0.17433,0.0424 -0.21162,-0.009 -0.0495,-0.0687 0.0403,-0.34898 0.058,-0.43129 0.0832,-0.38739 0.15313,-0.78042 0.23096,-1.16947 0.0233,-0.11666 0.0498,-0.23387 0.0785,-0.34932 0.009,-0.0363 0.0121,-0.0928 0.0591,-0.0983 0.0809,-0.009 0.20097,0.0821 0.27113,0.11719 0.22783,0.11391 0.45534,0.22849 0.68346,0.34181 0.56059,0.27849 1.12617,0.54781 1.68587,0.82767 0.28573,0.14286 0.58928,0.34831 0.8961,0.4367 m 11.49733,2.43008 c 0.12114,-0.50735 0.18825,-1.03606 0.28386,-1.54918 0.0314,-0.16856 0.0215,-0.47526 0.11586,-0.61782 0.0408,-0.0616 0.17949,-0.0131 0.23818,-0.002 0.22764,0.0436 0.45538,0.0861 0.68346,0.12726 0.0588,0.0106 0.23633,0.0149 0.25201,0.0859 0.0216,0.0977 -0.0336,0.26184 -0.0502,0.36104 -0.0475,0.28395 -0.10303,0.56675 -0.15242,0.85053 -0.12877,0.73985 -0.26486,1.47929 -0.40265,2.21745 -0.0663,0.35547 -0.17794,0.73186 -0.19348,1.09354 -0.13565,-0.037 -0.24898,-0.17876 -0.34932,-0.27203 -0.21795,-0.20259 -0.45032,-0.38973 -0.66828,-0.59233 -0.58302,-0.54195 -1.19555,-1.05597 -1.79217,-1.58327 -0.19127,-0.16904 -0.38355,-0.33624 -0.57716,-0.50201 -0.10616,-0.0909 -0.20502,-0.21267 -0.33414,-0.27022 -0.009,0.45235 -0.16984,0.92 -0.23883,1.36692 -0.0237,0.15315 -0.0555,0.30418 -0.0876,0.45564 -0.0126,0.0595 -0.008,0.14051 -0.0429,0.19256 -0.043,0.0636 -0.19162,0.006 -0.25342,-0.004 -0.22928,-0.0385 -0.45455,-0.0956 -0.68347,-0.13407 -0.057,-0.01 -0.20692,-0.0127 -0.23324,-0.0744 -0.0309,-0.0724 0.0269,-0.20856 0.0378,-0.28381 0.04,-0.27483 0.10127,-0.5466 0.14867,-0.82015 0.12306,-0.71019 0.27027,-1.41562 0.3895,-2.12632 0.0602,-0.35887 0.0777,-0.80407 0.21924,-1.13911 l 0.3797,0.31462 0.7594,0.67125 1.44287,1.26448 1.10872,0.96951 m 45.017302,-2.58196 c 0.10898,0.84383 0.33413,1.69774 0.33413,2.55159 -0.32048,-0.003 -0.65579,-0.0944 -0.97203,-0.14523 -0.72059,-0.11573 -1.447,-0.25742 -2.17189,-0.34003 -0.24854,-0.0283 -0.49758,-0.0743 -0.74421,-0.11565 -0.0794,-0.0133 -0.21716,-0.005 -0.24509,-0.0986 -0.0138,-0.0463 -0.0359,-0.14633 -0.0113,-0.19059 0.034,-0.0611 0.16529,-0.0901 0.22604,-0.11798 0.20063,-0.0922 0.40661,-0.17253 0.60753,-0.26419 0.63746,-0.29081 1.28729,-0.55534 1.92887,-0.83674 0.33478,-0.14683 0.69156,-0.35988 1.04798,-0.44256 m -57.031022,2.12632 c -0.0469,0.0732 -0.1639,0.0618 -0.24301,0.0747 -0.22222,0.0364 -0.4459,0.0636 -0.66828,0.0986 -0.59055,0.093 -1.18461,0.17233 -1.77699,0.25632 -0.34352,0.0487 -0.70053,0.14038 -1.04798,0.14754 0,-0.28912 0.0594,-0.5789 0.0885,-0.86572 0.0373,-0.36681 0.0546,-0.76852 0.15447,-1.12391 l 0.86572,0.34325 1.83775,0.75332 0.78978,0.31591 m 25.910762,-1.03278 c 0.0221,0.0373 0.0528,0.0766 0.0556,0.1215 0.0123,0.19208 -0.30299,0.15925 -0.25308,-0.0607 -0.58148,0.0856 -1.17387,0.47694 -1.59931,0.85885 -0.36978,0.33195 -0.69486,0.69447 -0.94036,1.13214 -0.83277,1.48463 -0.64137,3.40567 0.38994,4.7373 0.89772,1.15914 2.38256,1.69873 3.82041,1.56179 0.40817,-0.0389 0.77256,-0.22654 1.16948,-0.28599 -0.01,-0.0492 0.0514,-0.0379 0.10631,-0.0608 0.12035,-0.0501 0.23889,-0.10863 0.34933,-0.18226 0.44482,-0.29655 0.91304,-0.61494 1.2606,-1.07835 0.55205,-0.73606 0.85053,-1.57012 0.85053,-2.55159 0,-0.31009 0.035,-0.66017 -0.0759,-0.92647 -0.0933,-0.22393 -0.0735,-0.49639 -0.18225,-0.71384 -0.22434,-0.44868 -0.43796,-0.88488 -0.78978,-1.27579 -0.22448,-0.24942 -0.51747,-0.45954 -0.7594,-0.65308 -0.16393,-0.13114 -0.38653,-0.25471 -0.57715,-0.33414 -0.0593,-0.0247 -0.19371,-0.0453 -0.18225,-0.0911 -0.24958,-0.0374 -0.49767,-0.16103 -0.74422,-0.22115 -0.33887,-0.0826 -0.68714,-0.0674 -1.03278,-0.0674 -0.28341,0 -0.59585,-0.0101 -0.86572,0.0911 m 1.03279,0.24301 -0.0304,0.0304 v -0.0304 h 0.0304 m -0.16707,0.16706 -0.0152,0.0608 h -0.0304 l -0.0152,-0.0152 v -0.0304 l 0.0607,-0.0152 m -1.73067,0.55561 c 0.0865,-0.0113 0.11439,0.12144 0.028,0.14119 -0.0925,0.0211 -0.12529,-0.1285 -0.028,-0.14119 m 3.81143,0.31011 0.0152,0.0608 h -0.0608 l 0.0152,-0.0608 h 0.0304 m -1.45805,0.42527 -0.71384,0.17608 -0.27344,0.26437 -0.36722,0.3797 -0.19468,0.51639 c 0.12432,0.0625 0.0889,0.26122 -0.0608,0.25571 -0.10705,-0.004 -0.1019,-0.10098 -0.17166,-0.14957 -0.0857,-0.0597 -0.21013,-0.0401 -0.29915,-0.0148 -0.0361,0.0103 -0.0712,0.002 -0.0904,-0.0328 -0.0433,-0.0788 0.0654,-0.11331 0.0975,-0.16683 0.0809,-0.13473 0.14642,-0.31853 0.19234,-0.46881 0.0173,-0.0565 -0.0221,-0.14378 0.0224,-0.18827 0.0273,-0.0274 0.0738,-0.0255 0.10135,-6e-5 0.0837,0.0773 0.23611,0.22576 0.37115,0.21275 0.072,-0.007 0.14879,-0.12702 0.19364,-0.17766 0.14487,-0.1636 0.33082,-0.29934 0.44859,-0.48466 0.23699,0.0337 0.50816,-0.10621 0.74422,-0.13669 -0.0419,-0.29349 0.37896,-0.43915 0.4738,-0.13669 0.0984,0.31391 -0.34849,0.43661 -0.4738,0.15188 m 29.99634,0 c 0.0102,0.49104 0.0911,0.98051 0.0911,1.47324 0,0.10097 0.0626,0.40019 -4e-4,0.47662 -0.0385,0.0466 -0.1637,-0.005 -0.21221,-0.0157 -0.2176,-0.0492 -0.43661,-0.0938 -0.65309,-0.14768 -0.60849,-0.15138 -1.22539,-0.2779 -1.83775,-0.41315 -0.28973,-0.064 -0.66066,-0.089 -0.92647,-0.21907 l 0.31895,-0.1215 0.69865,-0.22534 1.57955,-0.51119 0.94166,-0.29626 m -57.304412,1.41248 -0.85053,0.20389 -1.41248,0.3224 -1.07835,0.24654 -0.60752,0.12327 0.0594,-1.54918 0.0469,-0.6379 0.82016,0.26832 1.62512,0.54433 0.92647,0.31127 0.47082,0.16706 m 23.981872,-1.07835 v 0.0304 l -0.0152,0.0152 h -0.0304 l -0.0152,-0.0608 0.0607,0.0152 m 22.15932,0.0304 c 0.0847,0.28669 0.0152,0.68769 0.0152,0.98722 0,0.83845 0.17709,1.92347 -0.47224,2.58159 -0.81181,0.82279 -2.48739,0.47091 -2.71724,-0.71346 -0.18057,0.0805 -0.34496,0.24893 -0.50121,0.36982 -0.35924,0.27796 -0.72086,0.55302 -1.07835,0.83322 -0.19477,0.15267 -0.41156,0.36824 -0.63789,0.46764 v -1.23023 c 0,-0.13978 -0.0475,-0.38348 0.009,-0.51145 0.0627,-0.14172 0.38007,-0.26444 0.50723,-0.34921 0.3108,-0.20718 0.63083,-0.4003 0.94166,-0.60752 0.18508,-0.12339 0.38292,-0.2929 0.59233,-0.36957 -0.15132,-0.0447 -0.34372,-0.0152 -0.5012,-0.0152 h -1.0176 c -0.13022,0 -0.39616,0.0476 -0.51157,-0.009 -0.0667,-0.0328 -0.0352,-0.21703 -0.0352,-0.2794 v -0.83534 c 0,-0.0746 -0.038,-0.26935 0.0616,-0.28633 0.15774,-0.0269 0.34023,-0.002 0.50032,-0.002 h 1.03278 c 0.74267,0 1.49,-0.0268 2.23264,-0.0304 0.52228,-0.003 1.05905,0.0379 1.57955,-1e-5 m -17.16043,0.28344 c 0.0673,-0.0235 0.10819,0.077 0.0401,0.10139 -0.0679,0.0243 -0.11115,-0.0766 -0.0401,-0.10139 m -3.70791,0.71897 c 0.0815,0.0105 0.18985,0.0584 0.27081,0.0401 0.26117,-0.059 0.29937,-0.37197 0.38228,-0.58691 -0.0927,-0.0494 -0.27318,-0.16595 -0.37947,-0.14015 -0.0864,0.021 -0.10375,0.098 -0.13465,0.17053 -0.0659,0.15457 -0.18995,0.34851 -0.13897,0.51639 m 2.85535,-0.41008 v 0.0304 l -0.0607,0.0152 v -0.0608 l 0.0607,0.0152 m 9.68996,0.0152 0.0152,0.0152 -0.0152,-0.0152 m -7.93993,0.0252 c 0.0681,-0.0242 0.11129,0.0769 0.04,0.10139 -0.0692,0.0238 -0.11016,-0.0765 -0.04,-0.10139 m -4.80282,0.0355 0.0152,0.0152 v 0.0304 l -0.0152,0.0152 h -0.0304 l -0.0152,-0.0152 v -0.0304 l 0.0152,-0.0152 h 0.0304 m 12.65162,0 0.0152,0.0152 -0.0152,-0.0152 m -14.27513,0.0554 c 0.0915,-0.0322 0.13536,0.10304 0.0431,0.13199 -0.086,0.027 -0.12917,-0.10167 -0.0431,-0.13199 m 14.15363,0.0357 0.0152,0.0152 -0.0152,-0.0152 m -0.18226,0.1215 0.0152,0.0152 -0.0152,-0.0152 m -0.0911,0.0608 0.0152,0.0152 -0.0152,-0.0152 m -0.0304,0.0304 0.0152,0.0152 -0.0152,-0.0152 m -10.31267,0.0759 v 0.0304 l -0.0607,0.0152 v -0.0608 l 0.0607,0.0152 m 10.13041,0.0456 0.0152,0.0152 -0.0152,-0.0152 m -0.0911,0.0607 0.0152,0.0152 -0.0152,-0.0152 m -0.0304,0.0304 0.0152,0.0152 -0.0152,-0.0152 m -8.18635,0.0911 0.0152,0.0607 h -0.0608 l 0.0152,-0.0607 h 0.0304 m 8.00409,0.0304 0.0152,0.0152 -0.0152,-0.0152 m -0.0911,0.0607 0.0152,0.0152 -0.0152,-0.0152 m -0.0304,0.0304 0.0152,0.0152 -0.0152,-0.0152 m 8.38379,0.0456 c -0.1598,-0.0472 -0.36519,-0.0152 -0.53158,-0.0152 h -0.56195 c -0.0567,0 -0.17165,-0.0216 -0.21866,0.0156 -0.0493,0.039 -0.0262,0.18635 -0.0238,0.24259 0.0103,0.23404 0.049,0.5207 0.23003,0.6893 0.27311,0.25437 0.80803,0.19629 0.98466,-0.14253 0.13031,-0.24999 0.10164,-0.52037 0.12126,-0.78978 m -8.56604,0.0759 0.0152,0.0152 -0.0152,-0.0152 m -9.87222,0.0456 0.0152,0.0152 v 0.0304 h -0.0759 l 0.0607,-0.0456 m 9.78109,0.0152 0.0152,0.0152 -0.0152,-0.0152 m -5.92251,0.0412 c 0.0935,-0.0269 0.11742,0.12169 0.0287,0.14151 -0.0892,0.0199 -0.11343,-0.11715 -0.0287,-0.14151 m 5.89213,-0.0108 0.0152,0.0152 -0.0152,-0.0152 m -11.89222,0.0456 0.0152,0.0608 h -0.0608 l 0.0152,-0.0608 h 0.0304 m 11.70997,0.0759 0.0152,0.0152 -0.0152,-0.0152 m -8.2471,0.0304 -0.0152,0.0607 h -0.0304 l -0.0152,-0.0152 v -0.0304 l 0.0608,-0.0152 m 8.15597,0.0304 0.0152,0.0152 -0.0152,-0.0152 m -0.0304,0.0304 0.0152,0.0152 -0.0152,-0.0152 m -2.62752,1.06316 c 0.18777,0.006 0.39049,-0.0508 0.57714,-0.0731 0.32575,-0.039 0.64841,-0.0764 0.97203,-0.12001 0.63128,-0.085 1.26793,-0.13277 1.89851,-0.22331 0.2671,-0.0384 0.53694,-0.0634 0.80496,-0.0956 0.0451,-0.005 0.23987,0.004 0.23987,-0.0651 0,-0.0715 -0.22103,-0.0711 -0.27024,-0.0779 -0.30857,-0.0429 -0.61876,-0.0773 -0.92647,-0.12575 -0.41454,-0.0652 -0.83083,-0.11951 -1.24542,-0.18058 -0.1727,-0.0254 -0.40367,-0.10193 -0.57715,-0.0671 -0.13846,0.0278 -0.29514,0.18458 -0.41007,0.26489 -0.23798,0.16628 -0.47685,0.33134 -0.71384,0.49901 -0.11425,0.0808 -0.26343,0.15336 -0.34932,0.26464 m 23.90594,1.06316 -0.42526,-0.11073 -0.88091,-0.2645 -1.54917,-0.46453 -0.91129,-0.28415 c 0.0711,-0.056 0.18615,-0.0674 0.27339,-0.0892 l 0.59233,-0.14812 c 0.68378,-0.17095 1.36534,-0.35237 2.05038,-0.51856 0.21811,-0.0529 0.43531,-0.11046 0.65309,-0.16491 0.0534,-0.0134 0.18406,-0.0717 0.23347,-0.035 0.0352,0.0261 0.022,0.099 0.0179,0.13568 -0.0134,0.11989 -0.008,0.24382 -0.008,0.36451 -0.002,0.52328 0.0201,1.05986 -0.0456,1.57955 m -33.83749,-2.06812 c 0.0697,-0.0156 0.0947,0.0948 0.0269,0.11264 -0.0716,0.0188 -0.10053,-0.0961 -0.0269,-0.11264 m 0.39347,-0.0126 v 0.0456 h -0.0152 l 0.0152,-0.0456 m -22.174512,0.0456 c -0.0802,0.27136 -0.0129,0.64619 -6e-4,0.92647 0.0269,0.6151 0.0582,1.22447 0.11953,1.83775 0.19174,1.91755 0.62124,3.81436 1.25322,5.63476 0.24937,0.71832 0.5571,1.40866 0.8453,2.11113 0.1267,-0.0252 0.24553,-0.13875 0.34932,-0.21263 0.22673,-0.16139 0.45626,-0.31883 0.68346,-0.47957 0.0742,-0.0525 0.28466,-0.1448 0.28233,-0.24968 -0.002,-0.0693 -0.0553,-0.14943 -0.0817,-0.21241 -0.0678,-0.16151 -0.13139,-0.32488 -0.19983,-0.48602 -0.19526,-0.45968 -0.3641,-0.93705 -0.51674,-1.41248 -0.48502,-1.51071 -0.86185,-3.08195 -1.01544,-4.66272 -0.0631,-0.6496 -0.13611,-1.30642 -0.13926,-1.95926 -9.3e-4,-0.19237 -1e-5,-0.38477 -1e-5,-0.57714 0,-0.0601 0.0209,-0.17094 -0.0156,-0.2224 -0.0443,-0.0626 -0.31898,-0.0206 -0.39447,-0.0206 -0.37459,0 -0.80311,0.0528 -1.16947,-0.0152 m 24.270462,0.10632 v 0.0304 h -0.0759 v -0.0304 h 0.0759 m -26.275282,1.06316 c -0.5915,0.26187 -1.25401,0.418 -1.86813,0.62271 -0.57579,0.19193 -1.1676,0.45416 -1.76181,0.57714 l -0.0607,-2.12632 0.85053,0.19936 1.74662,0.43497 0.7594,0.18758 0.33414,0.10456 m 26.685352,-0.91128 v 0.0759 h -0.0304 l -0.0152,-0.0152 0.0456,-0.0607 m -3.43249,0.18225 -0.0608,0.0456 -0.0152,-0.0152 v -0.0304 h 0.0759 m 3.72107,0.0435 c 0.0907,0 0.0922,0.14696 0,0.14696 -0.0922,0 -0.0908,-0.14696 0,-0.14696 m -1.65326,0.11779 c 0.0873,-0.034 0.13932,0.0956 0.0551,0.13086 -0.0876,0.0366 -0.13992,-0.0979 -0.0551,-0.13086 m 4.76762,0.0475 c 0.0866,-0.0206 0.11627,0.12134 0.0287,0.14091 -0.0885,0.0198 -0.11506,-0.12032 -0.0287,-0.14091 m -2.33782,0.0152 c 0.0685,-0.0182 0.0942,0.0936 0.0265,0.11053 -0.0698,0.0175 -0.0934,-0.0927 -0.0265,-0.11053 m 1.36842,0.16571 c 0.0697,-0.025 0.10978,0.0778 0.0401,0.10526 -0.0667,0.0263 -0.10801,-0.0809 -0.0401,-0.10526 m 5.89963,0.0254 0.0101,0.005 -0.0101,-0.005 m -0.0456,0.0304 0.0101,0.005 -0.0101,-0.005 m -0.0456,0.0304 0.0101,0.005 -0.0101,-0.005 m -0.0304,0.0304 0.0101,0.005 -0.0101,-0.005 m -0.10125,0.0709 0.0607,-0.0304 -0.0607,0.0304 m -0.0354,0.0203 0.0101,0.005 -0.0101,-0.005 m -0.0456,0.0304 0.0101,0.005 -0.0101,-0.005 m -0.0456,0.0304 0.0101,0.005 -0.0101,-0.005 m -0.0456,0.0304 0.0101,0.005 -0.0101,-0.005 m -0.0557,0.0253 v 0.0152 h 0.0456 l -0.0456,-0.0152 m -0.0911,0.0607 v 0.0152 l 0.0759,-0.0304 -0.0759,0.0152 m -8.38379,0.0304 0.0152,0.0607 h -0.0608 l 0.0152,-0.0607 h 0.0304 m 8.36354,0.005 0.0101,0.005 -0.0101,-0.005 m -0.0405,0.0101 -0.0152,0.0304 h 0.0304 l -0.0152,-0.0304 m -0.0506,0.0506 0.0101,0.005 -0.0101,-0.005 m -0.0456,0.0304 0.0101,0.005 -0.0101,-0.005 m -0.0405,0.0101 v 0.0304 h 0.0304 l -0.0304,-0.0304 m -4.38934,0.0304 0.0304,0.0304 v 0.0152 l -0.0304,0.0304 h -0.0152 l -0.0304,-0.0304 v -0.0152 l 0.0456,-0.0304 m 4.33872,0.0203 0.0101,0.005 -0.0101,-0.005 m -9.31843,0.0228 c 0.07,-0.0163 0.0922,0.0921 0.0265,0.11324 -0.0754,0.0242 -0.0956,-0.0972 -0.0265,-0.11324 m 9.28805,0.008 0.0101,0.005 -0.0101,-0.005 m -0.10125,0.0709 0.0759,-0.0304 -0.0759,0.0304 m -0.0354,0.0202 0.0101,0.005 -0.0101,-0.005 m -0.10126,0.0557 v 0.0152 l 0.0759,-0.0304 -0.0759,0.0152 m -8.65717,0.0304 v 0.0304 h -0.0759 v -0.0304 h 0.0759 m 8.62174,0.005 0.0101,0.005 -0.0101,-0.005 m -0.0557,0.0253 v 0.0152 h 0.0456 l -0.0456,-0.0152 m -10.26235,0.0398 c 0.0672,-0.03 0.11719,0.0699 0.0512,0.10048 -0.069,0.032 -0.11729,-0.071 -0.0512,-0.10048 m 10.22691,-0.004 0.0101,0.005 -0.0101,-0.005 m -2.63766,1.02772 c 0.0991,0.11056 0.28748,0.13962 0.42527,0.18031 0.29556,0.0873 0.58825,0.17778 0.8809,0.27533 1.1171,0.37236 2.22463,0.7732 3.34137,1.14679 0.35523,0.11883 0.7079,0.24564 1.06316,0.36451 0.0544,0.0182 0.31324,0.15005 0.34407,0.064 0.0237,-0.0661 -0.1784,-0.16377 -0.22256,-0.19322 -0.26687,-0.17791 -0.53253,-0.35941 -0.80497,-0.52866 -0.86316,-0.53624 -1.70604,-1.11496 -2.55159,-1.67866 -0.23052,-0.15369 -0.45376,-0.31603 -0.68346,-0.47079 -0.0775,-0.0522 -0.1926,-0.16414 -0.28857,-0.17099 -0.12081,-0.009 -0.31359,0.18583 -0.41008,0.25234 -0.36418,0.25102 -0.71714,0.52672 -1.09354,0.75901 m -2.80978,-0.6379 c 0.0307,0.16501 0.0125,0.37499 0.0764,0.52994 0.0336,0.0814 0.16891,0.0999 0.12486,0.21361 -0.0521,0.13444 -0.2343,0.0237 -0.33798,0.0645 -0.27467,0.10789 -0.54672,0.22311 -0.82016,0.33413 -0.0801,0.0325 -0.14409,0.13409 -0.22783,0.14196 -0.11955,0.0112 -0.1625,-0.12949 -0.0911,-0.20576 v -0.0152 c -0.12969,-0.11853 -0.18999,-0.30489 -0.32174,-0.42051 -0.1496,-0.13129 -0.34538,-0.10859 -0.52879,-0.13271 -0.0744,-0.01 -0.18354,-0.0382 -0.25662,-0.019 -0.0684,0.0179 -0.0899,0.0941 -0.16866,0.0995 -0.111,0.008 -0.14961,-0.0867 -0.15187,-0.18031 -0.1381,-0.0113 -0.28722,-0.0908 -0.42526,-0.0797 -0.0565,0.005 -0.0948,0.0557 -0.15188,0.0582 -0.0609,0.003 -0.10606,-0.0546 -0.16707,-0.0443 -0.18621,0.0313 -0.40593,0.17913 -0.57715,0.25995 -0.11712,0.0553 -0.32113,0.33358 -0.44031,0.16699 -0.12274,-0.17156 0.19644,-0.32764 0.24287,-0.1029 0.23585,-0.12575 0.49455,-0.20957 0.72873,-0.33814 0.0755,-0.0414 0.0854,-0.1453 0.16802,-0.17039 0.10527,-0.032 0.16138,0.0522 0.16641,0.14401 0.14072,0.006 0.28629,0.0854 0.42527,0.077 0.078,-0.005 0.12749,-0.079 0.2124,-0.054 0.0739,0.0219 0.0757,0.10456 0.13911,0.13274 0.0474,0.0211 0.11377,0.0133 0.16488,0.02 0.14679,0.0193 0.35727,0.0678 0.5012,0.0281 0.4618,-0.12751 0.93303,-0.37852 1.36686,-0.58156 0.14441,-0.0676 0.0762,-0.29532 0.28864,-0.28973 0.21339,0.006 0.23749,0.28045 0.0607,0.36362 m 5.41706,-0.35945 0.0101,0.005 -0.0101,-0.005 m -0.0456,0.0304 0.0101,0.005 -0.0101,-0.005 m -0.0456,0.0304 0.0101,0.005 -0.0101,-0.005 m -0.0557,0.0253 v 0.0152 h 0.0456 l -0.0456,-0.0152 m -0.0759,0.0759 0.0608,-0.0304 -0.0608,0.0304 m -0.0354,0.0203 0.0101,0.005 -0.0101,-0.005 m -6.88554,0.0348 c 0.0643,-0.0289 0.1128,0.0606 0.0512,0.0956 -0.0609,0.0346 -0.1142,-0.0673 -0.0512,-0.0956 m 6.83997,-0.004 0.0101,0.005 -0.0101,-0.005 m -0.0456,0.0304 0.0101,0.005 -0.0101,-0.005 m -6.66248,0.60246 c 0.0266,0.18177 0.16482,0.41909 0.31081,0.54058 0.0748,0.0622 0.15406,0.0199 0.20558,0.12769 l 0.3797,-0.13669 0.62046,-0.25553 0.13894,-0.16974 -0.0759,-0.57714 -0.25819,-0.0922 -0.3797,0.15527 -0.94166,0.4078 m 6.61691,-0.57209 0.0101,0.005 -0.0101,-0.005 m -0.0557,0.0253 v 0.0152 h 0.0456 l -0.0456,-0.0152 m -0.0354,0.0354 0.0101,0.005 -0.0101,-0.005 m -4.68804,0.0557 -0.0152,0.0608 h -0.0304 l -0.0152,-0.0608 h 0.0607 m -1.33655,0.0152 0.0152,0.0152 v 0.0304 l -0.0152,0.0152 h -0.0304 l -0.0152,-0.0152 v -0.0304 l 0.0152,-0.0152 h 0.0304 m 30.33048,0.18226 c -0.0913,0.49192 -0.072,1.00725 -0.14307,1.50361 -0.0163,0.11376 0.0132,0.40863 -0.0686,0.49139 -0.0454,0.0459 -0.16612,-0.0289 -0.21357,-0.0479 -0.20827,-0.0833 -0.41592,-0.16808 -0.62271,-0.25478 -0.57443,-0.24086 -1.15307,-0.47379 -1.73144,-0.7051 -0.27442,-0.10975 -0.55029,-0.25618 -0.83534,-0.33413 0.0423,-0.0659 0.14069,-0.0621 0.21264,-0.0777 0.20461,-0.0443 0.41573,-0.0768 0.6227,-0.10873 0.68071,-0.10514 1.35574,-0.25118 2.0352,-0.36468 0.1979,-0.0331 0.55682,-0.17735 0.74421,-0.10198 m -29.23694,0.0607 v 0.0304 l -0.0607,0.0152 v -0.0608 l 0.0607,0.0152 m -28.052282,0.78978 c -0.023,0.079 -0.15703,0.10233 -0.22782,0.13064 -0.21806,0.0873 -0.43767,0.17482 -0.65308,0.2684 -0.93162,0.4047 -1.87668,0.80123 -2.82497,1.16533 l -0.0803,-0.5164 -0.16268,-1.60993 0.34932,0.0284 0.80497,0.11937 2.79459,0.41419 m 29.221762,-0.48602 -0.0152,0.0607 h -0.0304 l -0.0152,-0.0152 v -0.0304 l 0.0607,-0.0152 m -1.71625,0.8961 0.0304,0.0304 v 0.0152 l -0.0304,0.0304 h -0.0152 l -0.0304,-0.0304 v -0.0152 l 0.0456,-0.0304 m -1.59474,0.19744 -0.0152,0.0456 h -0.0456 l -0.0152,-0.0456 h 0.0759 m 3.72106,0.45564 c 0.39362,0.34058 0.85731,0.63349 1.2758,0.94735 0.80292,0.60219 1.59679,1.21655 2.39971,1.81879 0.33525,0.25147 0.66918,0.5051 1.00241,0.75924 0.0948,0.0723 0.33379,0.19259 0.37702,0.30464 0.0278,0.072 -0.10465,0.16713 -0.1492,0.20864 -0.19776,0.18421 -0.39835,0.36734 -0.60753,0.53879 -0.64247,0.52665 -1.33709,0.99659 -2.08075,1.36866 -0.24258,0.12137 -0.54724,0.32957 -0.82016,0.35692 -0.0442,-0.54081 -0.24105,-1.11194 -0.36627,-1.64031 -0.23934,-1.00987 -0.46311,-2.02442 -0.68815,-3.0376 -0.0822,-0.36993 -0.17238,-0.73818 -0.25175,-1.10873 -0.0334,-0.15578 -0.10613,-0.35834 -0.0911,-0.51639 m -1.73143,0.3797 c 0.16277,0.39095 0.39853,0.7503 0.59566,1.12392 0.41644,0.78923 0.82412,1.58644 1.22315,2.38451 0.25952,0.51904 0.53104,1.03168 0.79348,1.54918 0.14318,0.28233 0.27004,0.63651 0.47088,0.88091 v 0.0152 c -0.23159,0.14667 -0.54555,0.21504 -0.80497,0.30123 -0.72593,0.24117 -1.50076,0.40661 -2.26301,0.47336 -0.23347,0.0204 -0.46462,0.0359 -0.69865,0.0462 -0.0603,0.003 -0.19756,0.0476 -0.24258,-0.01 -0.0546,-0.0696 0.0197,-0.30158 0.0292,-0.38572 0.0444,-0.39554 0.10584,-0.79052 0.16139,-1.18466 0.17027,-1.20804 0.34468,-2.41861 0.49011,-3.62994 0.0441,-0.36709 0.11586,-0.72839 0.16504,-1.09354 0.0185,-0.13741 7.9e-4,-0.35506 0.0803,-0.47083 m 29.14581,0 -0.14754,0.97203 -0.21697,1.12392 -1.09354,-0.54285 -1.56436,-0.78725 -0.59233,-0.29877 -0.2582,-0.16332 0.72902,-0.0594 2.00482,-0.15582 1.1391,-0.0885 m -56.909512,0.6379 -0.88091,0.42135 -1.65549,0.81263 -0.59234,0.28874 -0.33413,0.14796 c -0.0978,-0.66486 -0.33513,-1.33096 -0.36452,-2.00482 0.37948,4e-5 0.76091,0.0639 1.13911,0.0898 0.59024,0.0404 1.18926,0.0625 1.77699,0.13373 0.20762,0.0252 0.42907,0.047 0.6379,0.0498 0.0808,0.001 0.22296,-0.0106 0.27339,0.0608 m 25.925952,-0.10632 v 0.0152 h 0.0456 l -0.0456,-0.0152 m -0.0759,0.0304 v 0.0152 h 0.0456 l -0.0456,-0.0152 m -0.10632,0.0304 v 0.0152 h 0.0456 l -0.0456,-0.0152 m -0.0759,0.0304 v 0.0152 h 0.0456 l -0.0456,-0.0152 m -0.0911,0.0304 v 0.0152 h 0.0456 l -0.0456,-0.0152 m -0.0911,0.0304 v 0.0152 h 0.0607 l -0.0607,-0.0152 m 0.47083,0.65309 v 0.0152 h 0.0608 l -0.0608,-0.0152 m -0.0911,0.0304 v 0.0152 h 0.0607 l -0.0607,-0.0152 m -0.0911,0.0304 v 0.0152 h 0.0607 l -0.0607,-0.0152 m -2.44527,0.0152 v 0.0152 h 0.0456 l -0.0456,-0.0152 m 2.35414,0.0152 v 0.0152 h 0.0608 l -0.0608,-0.0152 m -2.44527,0.0152 v 0.0152 h 0.0456 l -0.0456,-0.0152 m 2.35414,0.0152 v 0.0152 h 0.0607 l -0.0607,-0.0152 m -2.44527,0.0152 v 0.0152 h 0.0456 l -0.0456,-0.0152 m 2.35414,0.0152 v 0.0152 h 0.0608 l -0.0608,-0.0152 m -2.44527,0.0152 v 0.0152 h 0.0608 l -0.0608,-0.0152 m 2.35415,0.0152 v 0.0152 h 0.0607 l -0.0607,-0.0152 m -2.44527,0.0152 v 0.0152 h 0.0456 l -0.0456,-0.0152 m 2.35414,0.0152 v 0.0152 h 0.0608 l -0.0608,-0.0152 m -2.44527,0.0152 v 0.0152 h 0.0456 l -0.0456,-0.0152 m 2.35414,0.0152 v 0.0152 h 0.0607 l -0.0607,-0.0152 m -2.44527,0.0152 v 0.0152 h 0.0456 l -0.0456,-0.0152 m 2.35414,0.0152 v 0.0152 h 0.0607 l -0.0607,-0.0152 m -2.44527,0.0152 v 0.0152 h 0.0456 l -0.0456,-0.0152 m 2.35414,0.0152 v 0.0152 h 0.0608 l -0.0608,-0.0152 m -2.44527,0.0152 v 0.0152 h 0.0608 l -0.0608,-0.0152 m 2.36933,0.0152 v 0.0152 h 0.0456 l -0.0456,-0.0152 m -2.43514,0.0202 0.0101,0.005 -0.0101,-0.005 m 2.32883,0.0101 v 0.0152 h 0.0607 l -0.0607,-0.0152 m -2.43009,0.0152 v 0.0152 h 0.0456 l -0.0456,-0.0152 m 2.35415,0.0152 v 0.0152 h 0.0456 l -0.0456,-0.0152 m -2.44527,0.0152 0.0152,0.0304 h 0.0152 l 0.0152,-0.0304 h -0.0456 m -0.0911,0.0304 v 0.0152 h 0.0456 l -0.0456,-0.0152 m -0.0911,0.0304 v 0.0152 h 0.0456 l -0.0456,-0.0152 m -0.0911,0.0304 v 0.0152 h 0.0456 l -0.0456,-0.0152 m -0.0911,0.0304 v 0.0152 h 0.0608 l -0.0608,-0.0152 m -0.0911,0.0304 v 0.0152 h 0.0607 l -0.0607,-0.0152 m -0.0911,0.0304 v 0.0152 h 0.0607 l -0.0607,-0.0152 m -0.0911,0.0304 v 0.0152 h 0.0456 l -0.0456,-0.0152 m -0.0759,0.0304 v 0.0152 h 0.0456 l -0.0456,-0.0152 m -0.10632,0.0304 v 0.0152 h 0.0608 l -0.0608,-0.0152 m -0.0759,0.0304 v 0.0152 h 0.0456 l -0.0456,-0.0152 m -0.0911,0.0304 v 0.0152 h 0.0456 l -0.0456,-0.0152 m -0.0911,0.0304 v 0.0152 h 0.0607 l -0.0607,-0.0152 m -0.0911,0.0304 v 0.0152 h 0.0456 l -0.0456,-0.0152 m -0.0911,0.0304 v 0.0152 h 0.0456 l -0.0456,-0.0152 m -0.0911,0.0304 v 0.0152 h 0.0456 l -0.0456,-0.0152 m -0.0911,0.0304 v 0.0152 h 0.0456 l -0.0456,-0.0152 m -0.0911,0.0304 v 0.0152 h 0.0456 l -0.0456,-0.0152 m -0.0658,0.0354 0.0101,0.005 -0.0101,-0.005 m 2.32883,0.0101 v 0.0152 h 0.0456 l -0.0456,-0.0152 m -2.43008,0.0152 v 0.0152 h 0.0456 l -0.0456,-0.0152 m 2.33895,0.0152 v 0.0152 h 0.0608 l -0.0608,-0.0152 m 33.04914,1.8985 c -0.23283,-0.0126 -0.5153,-0.26533 -0.71384,-0.38181 -0.58262,-0.34182 -1.16035,-0.69301 -1.74662,-1.02839 -0.18359,-0.10503 -0.36539,-0.21326 -0.54677,-0.322 -0.0678,-0.0407 -0.17058,-0.0724 -0.19744,-0.15111 0.92732,0 1.8526,-0.0152 2.7794,-0.0152 h 0.65309 c 0.0531,0 0.19118,-0.0249 0.21842,0.0352 0.02,0.0441 -0.01,0.10353 -0.0192,0.14705 -0.0267,0.1218 -0.053,0.24376 -0.0841,0.36452 -0.0689,0.26764 -0.13004,0.53751 -0.19984,0.80496 -0.0466,0.17836 -0.12702,0.36277 -0.14308,0.54677 m -35.47922,-1.88331 v 0.0152 h 0.0456 l -0.0456,-0.0152 m 2.35414,0.0152 v 0.0152 h 0.0456 l -0.0456,-0.0152 m -2.44527,0.0456 0.0456,-0.0152 -0.0456,0.0152 m 2.35414,-0.0152 v 0.0152 h 0.0456 l -0.0456,-0.0152 m -2.44527,0.0152 v 0.0152 h 0.0456 l -0.0456,-0.0152 m 2.35415,0.0152 v 0.0152 h 0.0456 l -0.0456,-0.0152 m -2.44527,0.0152 v 0.0152 h 0.0456 l -0.0456,-0.0152 m 2.36933,0.0152 v 0.0152 h 0.0456 l -0.0456,-0.0152 m -2.46046,0.0152 v 0.0152 h 0.0607 l -0.0607,-0.0152 m -19.501422,0.0607 c -0.0264,0.0774 -0.12972,0.10911 -0.19745,0.14762 -0.18187,0.10339 -0.36538,0.20378 -0.54677,0.30802 -0.67054,0.38535 -1.34832,0.7582 -2.02,1.14139 -0.17161,0.0979 -0.34415,0.19389 -0.5164,0.2906 -0.0556,0.0312 -0.16938,0.072 -0.19477,0.13512 -0.0454,0.11282 0.1613,0.0801 0.20996,0.0781 0.2437,-0.0102 0.48673,-0.0253 0.73039,-0.0322 1.01086,-0.0285 2.02542,-0.13975 3.03624,-0.13975 -0.0515,0.0955 -0.17146,0.1475 -0.25819,0.20839 -0.20259,0.14222 -0.40273,0.28792 -0.60753,0.42702 -0.59281,0.40264 -1.16643,0.83382 -1.76181,1.23273 -0.20357,0.13639 -0.45107,0.40212 -0.68346,0.47082 l -0.38739,-1.09354 -0.65655,-2.18708 -0.24704,-1.03278 4.10077,0.0456 m 21.855562,-0.0456 v 0.0152 h 0.0607 l -0.0607,-0.0152 m -2.44527,0.0152 v 0.0152 h 0.0607 l -0.0607,-0.0152 m 2.35414,0.0152 v 0.0152 h 0.0608 l -0.0608,-0.0152 m -2.44527,0.0152 v 0.0152 h 0.0608 l -0.0608,-0.0152 m 2.35414,0.0152 v 0.0152 h 0.0608 l -0.0608,-0.0152 m -2.44527,0.0152 v 0.0152 h 0.0607 l -0.0607,-0.0152 m 2.35415,0.0152 v 0.0152 h 0.0607 l -0.0607,-0.0152 m -2.44528,0.0152 v 0.0152 h 0.0608 l -0.0608,-0.0152 m 2.35415,0.0152 v 0.0152 h 0.0607 l -0.0607,-0.0152 m -2.44527,0.0152 v 0.0152 h 0.0607 l -0.0607,-0.0152 m 2.36933,0.0152 v 0.0152 h 0.0456 l -0.0456,-0.0152 m -2.47565,0.0152 v 0.0152 h 0.0759 l -0.0759,-0.0152 m 2.38452,0.0152 v 0.0152 h 0.0608 l -0.0608,-0.0152 m -0.0911,0.0304 v 0.0152 h 0.0607 l -0.0607,-0.0152 m -0.0911,0.0304 v 0.0152 h 0.0608 l -0.0608,-0.0152 m -0.0911,0.0304 v 0.0152 h 0.0607 l -0.0607,-0.0152 m -0.0911,0.0304 v 0.0152 h 0.0608 l -0.0608,-0.0152 m -0.0911,0.0304 v 0.0152 h 0.0607 l -0.0607,-0.0152 m -0.0759,0.0304 v 0.0152 h 0.0607 l -0.0607,-0.0152 m -0.0911,0.0304 v 0.0152 h 0.0607 l -0.0607,-0.0152 m -0.0911,0.0304 v 0.0152 h 0.0608 l -0.0608,-0.0152 m -0.0911,0.0304 v 0.0152 h 0.0608 l -0.0608,-0.0152 m -2.44527,0.0152 v 0.0152 h 0.0456 l -0.0456,-0.0152 m 2.35415,0.0152 v 0.0152 h 0.0607 l -0.0607,-0.0152 m -2.44528,0.0152 v 0.0152 h 0.0608 l -0.0608,-0.0152 m 2.36934,0.0152 v 0.0152 h 0.0607 l -0.0607,-0.0152 m -2.46046,0.0152 v 0.0152 h 0.0607 l -0.0607,-0.0152 m 2.36933,0.0152 v 0.0152 h 0.0607 l -0.0607,-0.0152 m -2.460462,0.0152 v 0.0152 h 0.0456 l -0.0456,-0.0152 m 2.369332,0.0152 v 0.0152 h 0.0608 l -0.0608,-0.0152 m -2.460462,0.0152 v 0.0152 h 0.0607 l -0.0607,-0.0152 m 2.369332,0.0152 v 0.0152 h 0.0607 l -0.0607,-0.0152 m -0.0911,0.0304 v 0.0152 h 0.0608 l -0.0608,-0.0152 m -0.0911,0.0304 v 0.0152 h 0.0607 l -0.0607,-0.0152 m -0.0759,0.0304 v 0.0152 h 0.0607 l -0.0607,-0.0152 m -0.10632,0.0304 v 0.0152 h 0.0759 l -0.0759,-0.0152 m -0.0911,0.0304 v 0.0152 h 0.0759 l -0.0759,-0.0152 m -0.0759,0.0304 v 0.0152 h 0.0607 l -0.0607,-0.0152 m -0.0911,0.0304 v 0.0152 h 0.0608 l -0.0608,-0.0152 m -0.0911,0.0304 v 0.0152 h 0.0608 l -0.0608,-0.0152 m -0.0911,0.0304 v 0.0152 l 0.0607,-0.0304 -0.0607,0.0152 m -0.0911,0.0304 v 0.0152 h 0.0607 l -0.0607,-0.0152 m -0.0911,0.0304 v 0.0152 h 0.0608 l -0.0608,-0.0152 m -0.0456,0.0152 -0.0456,0.0152 v 0.0152 l 0.0456,-0.0304 m -0.1367,0.0456 v 0.0152 h 0.0759 l -0.0759,-0.0152 m -0.0759,0.0304 v 0.0152 h 0.0608 l -0.0608,-0.0152 m -0.0911,0.0304 v 0.0152 h 0.0607 l -0.0607,-0.0152 m -0.0911,0.0304 v 0.0152 h 0.0608 l -0.0608,-0.0152 m -0.0911,0.0304 v 0.0152 l 0.0607,-0.0304 -0.0607,0.0152 m -0.0759,0.0304 v 0.0152 h 0.0456 l -0.0456,-0.0152 m -0.0911,0.0304 v 0.0152 h 0.0456 l -0.0456,-0.0152 m -0.10631,0.0304 v 0.0152 h 0.0759 l -0.0759,-0.0152 m 36.96764,0.78978 c -0.0851,0.50254 -0.31569,1.00651 -0.4785,1.48842 -0.0396,0.11707 -0.0822,0.23346 -0.12524,0.34933 -0.0139,0.0374 -0.0275,0.11102 -0.0709,0.12587 -0.0631,0.0216 -0.1584,-0.0736 -0.20628,-0.10562 -0.17892,-0.11955 -0.35424,-0.24477 -0.53158,-0.36667 -0.60742,-0.41752 -1.20944,-0.84443 -1.82257,-1.25339 -0.15851,-0.10573 -0.31236,-0.21817 -0.47083,-0.32401 -0.0697,-0.0465 -0.17005,-0.089 -0.19744,-0.17213 l 3.90332,0.2582 m -19.88112,1.41248 c 0.23027,0.36976 0.5204,0.71207 0.77862,1.06316 0.52649,0.71586 1.04277,1.43923 1.57046,2.15412 0.20157,0.27308 0.3968,0.55164 0.60092,0.82274 0.0526,0.0699 0.2206,0.22934 0.21525,0.32011 -0.003,0.059 -0.10108,0.10656 -0.14283,0.13728 -0.14136,0.10403 -0.28251,0.20872 -0.42527,0.3108 -0.44842,0.32063 -0.88837,0.65304 -1.33654,0.97402 -0.17561,0.12577 -0.38088,0.34489 -0.59234,0.3993 -0.19884,-0.32215 -0.54759,-0.61883 -0.68346,-0.97204 0.30032,-0.21509 0.59275,-0.44189 0.8961,-0.65271 0.1117,-0.0776 0.33301,-0.18674 0.40064,-0.30555 0.0329,-0.0577 -0.0352,-0.12183 -0.0665,-0.16565 -0.0956,-0.13398 -0.19862,-0.26255 -0.29651,-0.39489 -0.0291,-0.0394 -0.0765,-0.14543 -0.13542,-0.14137 -0.0969,0.007 -0.25037,0.16925 -0.32747,0.22682 -0.2108,0.1574 -0.42401,0.31254 -0.6379,0.46573 -0.098,0.0702 -0.19794,0.16964 -0.31894,0.19303 l -0.68347,-0.94165 v -0.0152 l 0.75941,-0.56212 0.51639,-0.36435 c -0.12714,-0.18689 -0.26689,-0.36569 -0.4021,-0.54677 -0.0304,-0.0407 -0.0971,-0.17399 -0.15483,-0.1732 -0.0799,0.001 -0.21496,0.14346 -0.27841,0.19015 -0.24223,0.17824 -0.48826,0.35154 -0.72903,0.53174 -0.0619,0.0463 -0.26634,0.24338 -0.34476,0.19931 -0.0653,-0.0367 -0.11425,-0.14229 -0.15836,-0.20123 -0.12398,-0.16564 -0.24653,-0.333 -0.367,-0.5012 -0.0373,-0.052 -0.16349,-0.17186 -0.14245,-0.24038 0.0179,-0.0583 0.11539,-0.106 0.16204,-0.13932 0.14259,-0.10185 0.28439,-0.2052 0.42527,-0.3094 0.40808,-0.30186 0.82351,-0.59396 1.23023,-0.89767 0.19622,-0.14652 0.43458,-0.38899 0.66827,-0.46362 m 18.31675,2.73385 c -0.2413,-0.1148 -0.44944,-0.354 -0.65308,-0.52493 -0.4556,-0.38243 -0.90548,-0.77355 -1.36692,-1.14873 -0.20509,-0.16676 -0.40478,-0.34006 -0.60752,-0.50968 -0.0924,-0.0773 -0.22804,-0.15729 -0.28858,-0.26194 l 1.15429,0.14761 1.68588,0.22587 0.65308,0.0886 0.21784,0.0591 -0.0354,0.14707 -0.1369,0.34932 -0.62267,1.42768 m -52.337922,-2.35415 c 0.0147,0.10198 -0.11198,0.16249 -0.18226,0.21962 -0.20229,0.16446 -0.40003,0.33636 -0.60752,0.49422 -0.53336,0.40578 -1.04102,0.84786 -1.56436,1.26668 -0.27323,0.21865 -0.64454,0.43973 -0.85053,0.72295 l -0.58724,-1.30617 -0.33923,-0.85053 c 0.15437,0.0482 0.31362,0.007 0.47083,-0.0189 0.23147,-0.0375 0.46584,-0.072 0.69865,-0.10022 0.98426,-0.11938 1.98689,-0.24601 2.96166,-0.42763 m 4.25265,0.8961 v 0.0152 h 0.0456 l -0.0456,-0.0152 m -1.62512,0.54677 c 0.0573,0.19906 0.20505,0.38718 0.31339,0.56195 0.20196,0.32578 0.40533,0.65282 0.61814,0.97204 0.80963,1.21444 1.69264,2.4009 2.71337,3.44768 0.29236,0.29981 0.58475,0.59973 0.88113,0.89609 0.141,0.14099 0.3193,0.35574 0.5012,0.44045 0.20103,-0.3039 0.48097,-0.57365 0.71795,-0.85053 0.0939,-0.10971 0.25038,-0.23635 0.28446,-0.3797 -0.44226,-0.31154 -0.83333,-0.78973 -1.20121,-1.18466 -0.86538,-0.92901 -1.6641,-1.91077 -2.37793,-2.96167 -0.23818,-0.35063 -0.45763,-0.7116 -0.66919,-1.07835 -0.0437,-0.0758 -0.21302,-0.28243 -0.17138,-0.36451 -0.12782,-0.0535 -0.31803,0.0577 -0.44045,0.0986 -0.38549,0.12896 -0.80094,0.23099 -1.16948,0.40258 m -0.0759,0.0304 v 0.0152 h 0.0456 l -0.0456,-0.0152 m 45.913392,0.18226 c 0.28465,0.0226 0.57209,0.12916 0.85053,0.191 0.66993,0.14878 1.33472,0.32052 2.00482,0.46853 0.22793,0.0503 0.45756,0.1019 0.68346,0.16062 0.0546,0.0142 0.19431,0.0195 0.21784,0.0806 0.0335,0.087 -0.11078,0.28241 -0.1495,0.3599 -0.17289,0.34603 -0.34205,0.69354 -0.52814,1.03279 -0.038,0.0692 -0.16287,0.39507 -0.2547,0.37505 -0.0804,-0.0175 -0.1539,-0.1225 -0.21197,-0.17503 -0.17555,-0.15877 -0.34428,-0.32553 -0.51639,-0.48805 -0.49208,-0.46467 -0.98872,-0.92497 -1.47324,-1.39762 -0.19639,-0.19157 -0.48162,-0.37013 -0.62271,-0.60774 m -48.161222,0.57714 v 0.0152 h 0.0456 l -0.0456,-0.0152 m -0.0759,0.0304 v 0.0152 h 0.0456 l -0.0456,-0.0152 m -0.0911,0.0304 v 0.0152 h 0.0607 l -0.0607,-0.0152 m -0.0911,0.0304 v 0.0152 h 0.0456 l -0.0456,-0.0152 m 21.278422,2.18708 c -0.21869,-0.39285 -0.58557,-0.74377 -1.01759,-0.88338 -0.22075,-0.0713 -0.51448,-0.0689 -0.68286,0.11665 -0.19519,0.21508 -0.14208,0.46348 0.0456,0.66041 0.28394,0.29798 0.67131,0.47037 0.98661,0.7303 0.17977,0.1482 0.34232,0.31543 0.43901,0.53031 0.23847,0.52997 -0.001,1.19711 -0.31811,1.6403 -0.65108,0.91062 -1.87286,0.72804 -2.71805,0.24727 -0.21208,-0.12063 -0.40926,-0.26607 -0.59233,-0.42717 -0.0511,-0.045 -0.15954,-0.11066 -0.16827,-0.18461 -0.009,-0.0791 0.13215,-0.17457 0.17912,-0.22782 0.1965,-0.22279 0.45624,-0.41062 0.62704,-0.65309 h 0.0456 c 0.19318,0.30918 0.56463,0.61072 0.94165,0.63654 0.20223,0.0138 0.43174,-0.0556 0.51708,-0.25684 0.13154,-0.31014 -0.24091,-0.55748 -0.45632,-0.70387 -0.51183,-0.34783 -1.15039,-0.75113 -1.1985,-1.43764 -0.0174,-0.24895 0.0369,-0.49609 0.12196,-0.72902 0.0913,-0.24983 0.21661,-0.49969 0.39566,-0.69865 0.75398,-0.8378 2.11809,-0.58483 2.95908,-0.0303 0.21336,0.14068 0.41206,0.3049 0.59232,0.48597 0.0676,0.0679 0.16887,0.15339 0.20693,0.24301 0.0397,0.0936 -0.11965,0.2013 -0.17654,0.25819 l -0.47083,0.47083 c -0.0757,0.0757 -0.1523,0.18292 -0.2582,0.21264 m -21.369542,-2.1567 v 0.0152 h 0.0456 l -0.0456,-0.0152 m -0.10632,0.0304 v 0.0152 h 0.0607 l -0.0607,-0.0152 m -0.0759,0.0304 v 0.0152 h 0.0607 l -0.0607,-0.0152 m -0.0911,0.0304 v 0.0152 h 0.0456 l -0.0456,-0.0152 m -0.0911,0.0304 v 0.0152 h 0.0456 l -0.0456,-0.0152 m -0.0759,0.0304 v 0.0152 h 0.0456 l -0.0456,-0.0152 m -0.10631,0.0304 v 0.0152 h 0.0607 l -0.0607,-0.0152 m -0.0759,0.0304 v 0.0152 h 0.0456 l -0.0456,-0.0152 m -0.0911,0.0304 v 0.0152 h 0.0456 l -0.0456,-0.0152 m -0.0911,0.0304 v 0.0152 h 0.0607 l -0.0607,-0.0152 m -0.0911,0.0304 v 0.0152 h 0.0759 l -0.0759,-0.0152 m -0.0911,0.0304 v 0.0152 h 0.0456 l -0.0456,-0.0152 m -0.0911,0.0304 v 0.0152 h 0.0608 l -0.0608,-0.0152 m -0.0911,0.0304 v 0.0152 h 0.0456 l -0.0456,-0.0152 m -0.0911,0.0304 v 0.0152 h 0.0607 l -0.0607,-0.0152 m -0.0911,0.0304 v 0.0152 h 0.0456 l -0.0456,-0.0152 m -0.0911,0.0304 v 0.0152 h 0.0456 l -0.0456,-0.0152 m -0.0506,0.0354 0.0101,0.005 -0.0101,-0.005 m -0.0557,0.0253 0.0152,0.0152 -0.0152,-0.0152 m -0.0354,0.0354 0.0101,0.005 -0.0101,-0.005 m -0.0456,0.0304 0.0101,0.005 -0.0101,-0.005 m -0.0405,0.0253 0.0152,0.0152 -0.0152,-0.0152 m -0.0911,0.0608 v 0.0304 l 0.0304,-0.0304 h -0.0304 m -0.0354,0.0354 0.0101,0.005 -0.0101,-0.005 m -0.0557,0.0253 0.0152,0.0152 -0.0152,-0.0152 m -0.0304,0.0304 0.0152,0.0152 -0.0152,-0.0152 m -0.0506,0.0355 0.0101,0.005 -0.0101,-0.005 m -0.0405,0.0253 0.0152,0.0152 -0.0152,-0.0152 m -0.081,0.0658 0.0101,0.005 -0.0101,-0.005 m -0.0911,0.0608 0.0101,0.005 -0.0101,-0.005 m -0.0405,0.0253 0.0152,0.0152 -0.0152,-0.0152 m -0.0456,0.0304 0.0152,0.0152 -0.0152,-0.0152 m -0.0456,0.0304 0.0152,0.0152 -0.0152,-0.0152 m -0.081,0.0658 0.0101,0.005 -0.0101,-0.005 m 1.3568,0.0253 -0.0304,0.0152 v 0.0152 l 0.0304,-0.0304 m -1.45805,0.0304 0.0152,0.0152 -0.0152,-0.0152 m 1.33654,0.0152 v 0.0152 h 0.0608 l -0.0608,-0.0152 m 52.353122,1.04797 v 0.0152 l -1.00241,1.62512 -0.35185,-0.33414 -0.48607,-0.53158 -1.18467,-1.27579 -0.49863,-0.54677 0.72903,0.20186 1.54918,0.45997 0.80496,0.23868 0.44046,0.14746 m -52.444252,-1.01759 v 0.0152 h 0.0608 l -0.0608,-0.0152 m -1.32135,0.0152 0.0152,0.0152 -0.0152,-0.0152 m 5.51325,1.79219 c -0.15163,0.26358 -0.37375,0.50083 -0.55629,0.74421 -0.40385,0.53847 -0.81483,1.07155 -1.21879,1.60993 -0.19357,0.25799 -0.50844,0.55012 -0.62463,0.85053 -0.10052,-0.0326 -0.17842,-0.17622 -0.24125,-0.2582 -0.17396,-0.22699 -0.35011,-0.45204 -0.51831,-0.68345 -0.48184,-0.66291 -0.95014,-1.3359 -1.37808,-2.0352 -0.1715,-0.28025 -0.4038,-0.57321 -0.52026,-0.8809 0.34605,-0.13056 0.72236,-0.20867 1.07835,-0.31016 0.66332,-0.18913 1.32601,-0.38052 1.98963,-0.56862 0.24277,-0.0688 0.4844,-0.14328 0.72902,-0.20526 0.041,-0.0104 0.23335,-0.0947 0.23335,-0.007 0,0.0626 -0.0852,0.12226 -0.12269,0.16481 -0.12703,0.14415 -0.26235,0.28049 -0.38832,0.42526 -0.52,0.59763 -1.0622,1.20041 -1.62085,1.76181 -0.16936,0.17019 -0.33751,0.35023 -0.49475,0.53158 -0.0338,0.039 -0.16155,0.14571 -0.0921,0.19994 0.0575,0.0449 0.19432,-0.0325 0.2527,-0.0545 0.22754,-0.0858 0.45566,-0.17014 0.68346,-0.25519 0.66303,-0.24753 1.32522,-0.49775 1.98964,-0.74156 0.17243,-0.0633 0.34505,-0.12761 0.51639,-0.19377 0.0945,-0.0365 0.20154,-0.0963 0.30376,-0.094 m -4.28302,-1.777 v 0.0152 h 0.0608 l -0.0608,-0.0152 m -1.2758,0.0152 0.0152,0.0152 -0.0152,-0.0152 m 1.18467,0.0152 v 0.0152 h 0.0607 l -0.0607,-0.0152 m -0.0911,0.0304 v 0.0152 h 0.0607 l -0.0607,-0.0152 m -0.0911,0.0304 v 0.0152 h 0.0607 l -0.0607,-0.0152 m -0.0759,0.0304 v 0.0152 h 0.0456 l -0.0456,-0.0152 m -0.10631,0.0304 v 0.0152 h 0.0759 l -0.0759,-0.0152 m -0.0911,0.0304 v 0.0152 h 0.0759 l -0.0759,-0.0152 m -0.0911,0.0304 v 0.0152 h 0.0608 l -0.0608,-0.0152 m -0.0911,0.0304 v 0.0152 h 0.0607 l -0.0607,-0.0152 m -0.0911,0.0304 v 0.0152 h 0.0608 l -0.0608,-0.0152 m -0.0911,0.0304 v 0.0152 h 0.0759 l -0.0759,-0.0152 m -0.0759,0.0304 v 0.0152 h 0.0607 l -0.0607,-0.0152 m -0.10632,0.0304 v 0.0152 h 0.0759 l -0.0759,-0.0152 m 52.459432,2.49083 -0.35726,0.54677 -0.82741,1.1391 c -0.10583,-0.0504 -0.17449,-0.16908 -0.24697,-0.2582 -0.14795,-0.18192 -0.29604,-0.36368 -0.44256,-0.54676 -0.39383,-0.4921 -0.79158,-0.98111 -1.18542,-1.47324 -0.18417,-0.23014 -0.46184,-0.47744 -0.58551,-0.74422 l 0.3797,0.12618 0.80497,0.29828 2.46046,0.91209 m -8.83943,1.24542 c 0.14517,-0.0839 0.25812,-0.28896 0.41148,-0.34462 0.0952,-0.0345 0.11938,0.13456 0.21124,0.11155 0.0531,-0.0133 0.0996,-0.0795 0.13668,-0.1162 0.10261,-0.1015 0.20859,-0.19929 0.30877,-0.30327 0.0322,-0.0334 0.10073,-0.0794 0.11037,-0.127 0.0149,-0.0737 -0.14329,-0.18559 -0.19138,-0.23394 -0.2151,-0.21628 -0.43712,-0.42611 -0.65302,-0.64202 -0.0568,-0.0568 -0.18183,-0.23592 -0.27339,-0.2164 -0.12371,0.0264 -0.30424,0.2634 -0.39489,0.35316 -0.0345,0.0342 -0.10208,0.0831 -0.1034,0.13663 -0.002,0.0869 0.17137,0.15432 0.13497,0.23867 -0.075,0.17385 -0.47967,0.26193 -0.29844,0.47517 0.0216,0.0254 0.0436,0.052 0.0696,0.073 0.13704,0.11044 0.30901,-0.23499 0.42939,-0.27213 0.0792,-0.0244 0.21049,0.15694 0.2482,0.21423 0.0828,0.12587 -0.28235,0.28844 -0.32229,0.39929 -0.028,0.0777 0.13115,0.1987 0.17607,0.25386 m 4.11595,-0.88091 2.27821,1.03141 1.07835,0.4874 c -0.0702,0.18152 -0.25493,0.35177 -0.37843,0.50119 -0.30045,0.36354 -0.65903,0.70755 -0.92774,1.09355 l -0.17973,-0.21263 -0.2911,-0.44046 -1.12645,-1.71624 -0.34173,-0.5164 -0.11138,-0.22782 m -40.977282,0.0304 -0.14422,0.27338 -0.34685,0.53158 -1.23024,1.88332 -0.35481,0.54677 -0.15652,0.28857 c -0.15769,-0.0507 -0.30343,-0.28931 -0.41266,-0.41008 -0.25966,-0.2871 -0.51119,-0.5806 -0.7609,-0.87656 -0.11378,-0.13487 -0.27619,-0.28172 -0.34524,-0.44479 l 1.01759,-0.48598 1.67069,-0.81276 0.68346,-0.33398 0.3797,-0.15947 m 35.600722,0.18226 -0.51639,0.42526 0.2641,0.36451 0.57124,0.69865 h 0.0152 l 0.47083,-0.34932 c 0.04,0.10353 0.24304,0.22451 0.24876,0.0291 0.003,-0.0952 -0.20114,-0.25326 -0.26253,-0.31713 -0.25838,-0.26877 -0.48665,-0.63498 -0.7912,-0.85112 m -1.32136,1.07835 c 0.31815,0.0665 0.44813,0.34326 0.41008,0.63789 0.35145,-0.0959 0.6672,0.11278 0.66827,0.50121 l 0.33414,-0.22782 c -0.053,-0.12508 -0.16612,-0.22946 -0.25121,-0.33414 -0.16464,-0.20253 -0.3254,-0.40907 -0.49499,-0.60752 -0.0573,-0.0671 -0.16252,-0.26321 -0.25643,-0.27284 -0.10215,-0.0105 -0.35037,0.22567 -0.40986,0.30322 m 8.56605,2.00481 v 0.0152 l -1.12451,1.15565 -0.27279,0.27196 -0.11827,0.0772 -0.13429,-0.19864 -0.34206,-0.62271 -0.83095,-1.5188 -0.62481,-1.1391 0.34932,0.17539 0.66828,0.3823 1.59474,0.91128 0.83534,0.49028 m -41.554432,-1.68587 c -0.0696,0.29628 -0.3294,0.61568 -0.47957,0.88091 -0.33468,0.59109 -0.67409,1.18027 -0.99836,1.777 -0.11664,0.21465 -0.24284,0.42452 -0.36194,0.63789 -0.0266,0.0478 -0.1194,0.16576 -0.0644,0.21799 0.0558,0.053 0.17332,-0.0563 0.21842,-0.0863 l 0.62271,-0.41515 1.83775,-1.2276 0.51639,-0.34435 c 0.0902,-0.0601 0.18154,-0.13998 0.28857,-0.16454 l -0.3,0.60752 -0.5164,1.04797 -1.02135,2.05038 c -0.26416,-0.11184 -0.50969,-0.39738 -0.72902,-0.58088 -0.59038,-0.49391 -1.1495,-1.02253 -1.70046,-1.55927 -0.20288,-0.19764 -0.41001,-0.3963 -0.60031,-0.60607 -0.0753,-0.083 -0.17265,-0.15849 -0.22044,-0.261 l 0.30376,-0.1388 0.62271,-0.35814 1.80737,-1.04174 0.77459,-0.43577 m 32.821322,0.14479 c -0.16982,0.0395 -0.17158,0.12628 -0.0824,0.2501 0.0316,0.0439 0.0766,0.13963 0.14374,0.12019 0.21726,-0.0629 0.18291,-0.42709 -0.0614,-0.37029 m -1.36693,0.56905 0.33414,0.28328 0.62271,0.486 0.34932,0.25153 0.24301,-0.12472 -0.24743,-0.3797 -0.64866,-0.91128 c -0.21788,0.0421 -0.46816,0.27242 -0.65309,0.39489 m 1.89851,-0.0526 c -0.0759,0.0165 -0.24316,0.0903 -0.26077,0.17553 -0.0145,0.0702 0.15537,0.31126 0.23061,0.29972 0.26133,-0.0401 0.362,-0.54733 0.0302,-0.47525 m -3.08317,0.7513 0.13669,0.28857 -0.5012,0.24301 c 0.0123,0.0688 0.0671,0.24165 0.14069,0.26703 0.0458,0.0158 0.10899,-0.0312 0.14788,-0.0506 0.11177,-0.0559 0.22041,-0.11915 0.33414,-0.17083 l 0.16071,0.33217 -0.1,0.0863 -0.34933,0.17389 0.1367,0.30376 0.36451,-0.18226 0.14864,-0.0453 0.10955,0.16679 0.21608,-0.13993 -0.0642,-0.42203 -0.22782,-1.21504 -0.65308,0.36451 m 6.51566,-0.13669 c 0.29565,0.1646 0.57224,0.38406 0.85053,0.57677 0.48397,0.33513 0.97455,0.66068 1.45805,0.9965 0.18636,0.12944 0.37542,0.25499 0.56196,0.38421 0.0488,0.0338 0.17501,0.0894 0.18345,0.15507 0.0128,0.0996 -0.25396,0.27253 -0.32015,0.33408 -0.24713,0.22981 -0.5031,0.44947 -0.7594,0.6689 -0.12158,0.1041 -0.24986,0.24808 -0.39489,0.31696 l -0.44514,-0.94166 -0.74421,-1.59474 -0.29696,-0.6379 -0.0932,-0.25819 m -5.34618,0.0304 0.1215,0.59234 0.34933,-0.19745 v -0.0304 l -0.47083,-0.36452 m -2.61234,0.82016 0.39489,0.22782 c -0.0566,0.0804 -0.24612,0.33045 -0.34933,0.33353 -0.0597,0.002 -0.1375,-0.0736 -0.19744,-0.092 -0.16223,-0.0498 -0.35924,0.0174 -0.45884,0.15356 -0.25513,0.34866 0.044,1.05769 0.51959,0.97759 0.14556,-0.0245 0.52926,-0.25319 0.36409,-0.45202 -0.0673,-0.081 -0.26009,0.10915 -0.34689,0.0869 -0.084,-0.0216 -0.14045,-0.25029 -0.16908,-0.32408 0.21035,-0.0451 0.42554,-0.17377 0.62271,-0.2603 0.0563,-0.0247 0.17817,-0.10477 0.23959,-0.0828 0.0605,0.0216 0.0899,0.15135 0.1054,0.20645 0.0663,0.2365 0.015,0.41876 0.004,0.65308 l 0.34933,-0.16024 0.13029,-0.0868 -0.14173,-0.31494 -0.40257,-0.77459 -0.16907,-0.28618 -0.14595,0.0419 -0.34932,0.15315 m 2.84016,0.30376 0.48601,-0.27128 0.16707,-0.15399 -0.1215,-0.0508 -0.39489,0.23015 -0.13626,0.0998 -4.6e-4,0.14613 m 3.40212,-0.0456 0.85053,0.66145 1.47324,1.15314 0.57714,0.45487 0.19864,0.1897 -0.0923,0.11369 -0.28857,0.22819 -0.86571,0.65308 -0.44046,0.29732 -1.04191,-2.71865 -0.27944,-0.72903 -0.0911,-0.30376 m -7.33582,1.91369 c 0.17425,-0.008 0.37312,-0.11199 0.53158,-0.18225 v -0.0304 c -0.43752,-0.15898 -0.68314,-0.66188 -0.63526,-1.10872 0.0142,-0.13216 0.0902,-0.23905 0.11887,-0.36452 -0.12481,0.0341 -0.24228,0.0941 -0.36451,0.1367 -0.0437,0.0152 -0.12359,0.0301 -0.1508,0.0714 -0.0479,0.0727 0.0825,0.30966 0.11113,0.38427 0.13356,0.34796 0.31314,0.72919 0.38899,1.09353 M 92.125468,174.7241 c -0.0516,0.22303 -0.1609,0.43934 -0.24203,0.65309 -0.15767,0.41539 -0.31462,0.83089 -0.47467,1.24541 -0.2225,0.57623 -0.38999,1.21673 -0.68059,1.76182 -0.15689,-0.0603 -0.30372,-0.19124 -0.44046,-0.28858 -0.28641,-0.20386 -0.56626,-0.41614 -0.85053,-0.62287 -0.14562,-0.1059 -0.40414,-0.24833 -0.48601,-0.40991 l 0.80496,-0.59426 1.42768,-1.06475 0.60752,-0.45405 0.33413,-0.2259 m 23.283242,0.42527 c 0.0573,0.0875 0.17776,0.12362 0.24416,0.21269 0.20277,0.27199 0.15897,0.61244 -0.12265,0.8049 0.0843,0.13848 0.29484,0.23716 0.42526,0.33183 0.047,0.0341 0.10621,0.0889 0.16707,0.0918 0.0912,0.004 0.20323,-0.0607 0.28857,-0.0895 -0.11995,-0.36806 -0.26344,-0.72919 -0.39412,-1.09354 -0.0304,-0.0849 -0.0759,-0.33419 -0.15724,-0.37786 -0.0935,-0.0502 -0.347,0.10198 -0.45105,0.11967 m -1.38211,0.42526 0.26228,1.04797 0.13261,0.48602 c 0.0723,-0.0187 0.27511,-0.0353 0.31715,-0.10007 0.0521,-0.0802 -0.087,-0.37325 -0.11347,-0.46189 -0.0756,-0.25353 -0.15409,-0.50655 -0.23195,-0.7594 -0.0195,-0.0633 -0.044,-0.23536 -0.10179,-0.27159 -0.0582,-0.0365 -0.20806,0.0345 -0.26483,0.059 m 0.94166,0.008 c -0.17914,0.0371 -0.0789,0.19989 -0.0378,0.32632 0.0165,0.0506 0.0294,0.14725 0.0995,0.14053 0.36145,-0.0346 0.31363,-0.54456 -0.0616,-0.46685 m -2.06557,0.23519 c 0.0776,0.11372 0.28483,0.16674 0.38838,0.27596 0.23577,0.24867 0.31888,0.61403 0.20547,0.93908 -0.0428,0.12275 -0.13429,0.2165 -0.18378,0.33414 l 0.45564,-0.0983 0.15087,-0.0496 -0.0617,-0.33806 -0.21071,-0.85053 -0.0989,-0.31846 -0.18964,0.0166 -0.45564,0.0892 m 9.72033,-0.12151 c 0.44636,0.39043 0.87352,0.80243 1.32136,1.19112 0.36615,0.31779 0.71443,0.65604 1.07835,0.97643 0.0977,0.086 0.19108,0.17654 0.28879,0.26255 0.0367,0.0323 0.10253,0.0709 0.11604,0.12111 0.0123,0.0458 -0.0396,0.0749 -0.0708,0.0965 -0.1,0.0693 -0.2025,0.1351 -0.30369,0.20256 -0.34492,0.22994 -0.6887,0.46644 -1.04798,0.67334 -0.0732,0.0422 -0.27195,0.21712 -0.35798,0.18664 -0.0549,-0.0195 -0.0684,-0.15309 -0.0825,-0.20183 -0.0597,-0.20699 -0.1144,-0.41547 -0.17347,-0.62271 -0.19997,-0.70159 -0.39513,-1.40594 -0.5819,-2.11114 -0.0484,-0.18286 -0.10347,-0.36397 -0.15188,-0.54676 -0.0189,-0.0715 -0.0624,-0.15594 -0.0344,-0.22783 m -28.720552,0.0152 c -0.0308,0.20856 -0.1193,0.42133 -0.18187,0.62271 -0.10514,0.33842 -0.20621,0.6783 -0.3084,1.0176 -0.22655,0.75221 -0.40581,1.5479 -0.69439,2.2782 l -0.42527,-0.22994 -0.98722,-0.61186 -0.31895,-0.21124 -0.10751,-0.10266 0.15308,-0.18084 0.55551,-0.50121 1.57059,-1.4269 0.45722,-0.41365 0.28721,-0.24021 m 17.785182,1.94407 c 0.0725,-0.006 0.32059,-0.007 0.36271,-0.0699 0.0458,-0.0683 -0.0437,-0.32167 -0.0607,-0.40093 -0.0815,-0.37907 -0.10888,-0.78461 -0.22606,-1.15429 l -0.23325,0.0673 0.0344,0.40349 0.12287,1.15429 m -1.44287,-1.42767 c 0.11314,0.2426 0.42221,0.45991 0.60693,0.65308 0.0898,0.0939 0.16896,0.21733 0.28917,0.27339 -0.0254,-0.32108 -0.018,-0.71195 -0.12151,-1.0176 l -0.77459,0.0911 m 2.27821,-0.007 c -0.0456,0.003 -0.16778,0.006 -0.19566,0.0469 -0.0314,0.0463 0.008,0.15382 0.0185,0.20348 0.0351,0.16594 0.0688,0.33394 0.0968,0.50121 0.0135,0.0808 0.0123,0.30494 0.12613,0.29831 0.66761,-0.0389 0.60521,-1.09846 -0.0459,-1.04985 m -3.0528,1.66282 0.34933,-0.0304 c 0,-0.40102 -0.092,-0.8008 -0.12015,-1.19985 -0.005,-0.077 0.008,-0.34884 -0.0795,-0.37487 -0.0598,-0.0178 -0.19971,-0.0151 -0.22072,0.0581 -0.0318,0.11079 0.0103,0.28971 0.0103,0.40789 0,0.36439 -0.006,0.78082 0.0607,1.1391 m -1.30614,-1.56437 v 1.59475 l 0.80497,-0.0152 -0.045,-1.18467 -0.0401,-0.39446 -0.20347,-0.002 -0.51639,0.001 m 6.92574,0.0607 0.0974,0.36452 0.0591,0.1179 0.29916,-0.0723 c -0.0692,-0.14532 -0.31352,-0.33635 -0.45564,-0.41008 m 5.86258,0.34933 0.59293,0.63403 1.33123,1.46062 0.44577,0.48753 0.14873,0.19525 -0.0886,0.0831 -0.30375,0.1748 -0.88091,0.47764 -0.45564,0.2081 -0.59667,-2.73384 -0.15399,-0.69865 -0.0391,-0.28857 m -10.73794,0.15188 0.10632,0.94166 0.72902,-0.0911 v -0.0304 l -0.48859,-0.5012 -0.30118,-0.31895 h -0.0456 m -14.656442,0.0304 c -0.0268,0.30691 -0.13851,0.62641 -0.20907,0.92647 -0.14993,0.63762 -0.29881,1.2754 -0.44582,1.9137 -0.0525,0.2279 -0.10768,0.45518 -0.15883,0.68346 -0.0111,0.0495 -0.0205,0.19649 -0.0738,0.21723 -0.10149,0.0395 -0.37155,-0.1557 -0.46424,-0.20205 -0.45221,-0.2261 -0.89356,-0.47062 -1.33655,-0.71383 l 0.22783,-0.28858 0.44022,-0.45562 1.38098,-1.44282 0.39361,-0.40953 0.24564,-0.22843 m 1.92888,0.68347 c 0.0238,0.11022 -0.0203,0.25335 -0.0389,0.36451 -0.0347,0.207 -0.0616,0.41548 -0.0936,0.62271 -0.1078,0.69826 -0.20431,1.3977 -0.3121,2.09594 -0.0367,0.23784 -0.0732,0.47597 -0.11067,0.71384 -0.009,0.0566 0.005,0.19445 -0.0571,0.22454 -0.0433,0.0212 -0.10744,-0.0205 -0.14706,-0.0361 -0.122,-0.0483 -0.24376,-0.0967 -0.36451,-0.14814 -0.4992,-0.21263 -1.05863,-0.38773 -1.51881,-0.67815 0.0628,-0.1409 0.19883,-0.26158 0.29716,-0.37971 0.2073,-0.24907 0.4159,-0.49676 0.62514,-0.74421 0.37084,-0.43854 0.73887,-0.87991 1.10629,-1.32136 0.18961,-0.22781 0.37926,-0.53408 0.61413,-0.71383 m 21.688502,0.0456 c 0.6157,0.64338 1.13736,1.39544 1.70578,2.08098 0.15859,0.19128 0.3169,0.38291 0.47217,0.57692 0.0714,0.0892 0.169,0.17292 0.19138,0.28858 l -0.54677,0.25045 -0.74421,0.33494 -0.53158,0.20438 -0.4015,-2.6579 -0.11725,-0.77459 -0.028,-0.30376 m -1.95926,0.59233 c 0.12691,0.10332 0.21519,0.27722 0.31016,0.41008 0.20602,0.28819 0.41476,0.57465 0.61669,0.86572 0.32923,0.47458 0.66432,0.94802 1.00767,1.41248 0.0923,0.12487 0.17883,0.25404 0.27005,0.3797 0.0282,0.0388 0.0914,0.0976 0.087,0.14987 -0.004,0.0465 -0.0692,0.0636 -0.10454,0.0779 -0.10583,0.043 -0.21186,0.0856 -0.31895,0.1253 -0.38391,0.14237 -0.76558,0.28978 -1.15429,0.41895 -0.0803,0.0267 -0.31019,0.15056 -0.3883,0.10685 -0.0621,-0.0348 -0.0343,-0.16763 -0.0383,-0.22582 -0.0159,-0.23233 -0.0582,-0.46558 -0.0594,-0.69865 -0.004,-0.76961 -0.16362,-1.53871 -0.18247,-2.30858 -0.003,-0.14259 -0.018,-0.29915 -0.0366,-0.44045 -0.011,-0.0833 -0.0418,-0.19435 -0.009,-0.27339 m -17.921862,0.33414 c 0,0.95764 -0.12823,1.91391 -0.15166,2.87054 -0.006,0.23326 -0.0306,0.46579 -0.0306,0.69864 0,0.0589 0.0244,0.20265 -0.0382,0.23766 -0.0413,0.0231 -0.1035,-0.009 -0.14408,-0.0209 -0.12251,-0.0348 -0.24279,-0.0772 -0.36451,-0.11474 -0.5074,-0.15644 -1.00646,-0.34164 -1.50361,-0.52728 l 0.17703,-0.28857 0.46473,-0.65309 1.5605,-2.20226 h 0.0304 m 1.974442,0.39489 h 0.0152 c 0.0805,0.27247 0.003,0.62732 0.0158,0.91128 0.0309,0.70661 0.0438,1.41852 0.045,2.12632 3.7e-4,0.23211 0.0152,0.46545 0.0152,0.69865 0,0.0642 0.0273,0.21205 -0.0156,0.264 -0.0288,0.0349 -0.0856,0.01 -0.12109,0.002 -0.11125,-0.0253 -0.22331,-0.0482 -0.33413,-0.0755 -0.40627,-0.10026 -0.81282,-0.20058 -1.215042,-0.31616 -0.0703,-0.0202 -0.36285,-0.059 -0.38172,-0.13688 -0.0165,-0.0682 0.0825,-0.18228 0.11473,-0.2384 0.11931,-0.20799 0.24124,-0.41456 0.36005,-0.62271 0.315442,-0.55265 0.636082,-1.10238 0.950552,-1.65549 0.17786,-0.31284 0.33664,-0.66873 0.55113,-0.95685 m 14.0793,0.0607 0.5384,0.86572 0.78979,1.29098 0.46614,0.7594 0.18011,0.33414 -1.30617,0.38398 -0.74422,0.17798 0.0456,-2.64272 v -0.78978 l 0.0304,-0.3797 m -2.0352,0.21263 c 0.0895,0.0999 0.14205,0.25816 0.19871,0.37971 0.10923,0.23429 0.22358,0.46622 0.33679,0.69864 0.29832,0.61249 0.60941,1.21999 0.89665,1.83775 0.10762,0.23147 0.30004,0.49287 0.34485,0.74422 -0.54581,0.0802 -1.07824,0.25396 -1.62512,0.33413 -0.12702,0.0186 -0.25277,0.0453 -0.3797,0.0649 -0.0387,0.006 -0.10684,0.0337 -0.14271,0.009 -0.0572,-0.039 -0.0189,-0.20037 -0.0111,-0.25641 0.0329,-0.23682 0.0452,-0.47623 0.0736,-0.71384 0.0881,-0.73604 0.14296,-1.47933 0.21439,-2.21745 0.0201,-0.20783 0.0335,-0.41536 0.059,-0.62271 0.0107,-0.0873 -0.004,-0.17665 0.0347,-0.2582 m -10.08485,0.34933 0.0469,0.53158 0.062,0.7594 0.1215,1.45805 0.0885,1.04797 c -0.48708,-5e-5 -0.99394,-0.15786 -1.47324,-0.23867 -0.12655,-0.0213 -0.25473,-0.0472 -0.3797,-0.0764 -0.032,-0.007 -0.10052,-0.012 -0.11911,-0.0434 -0.0295,-0.0498 0.0553,-0.17308 0.0775,-0.21871 l 0.29593,-0.60752 c 0.30042,-0.61679 0.58949,-1.23939 0.89626,-1.85294 0.11489,-0.22978 0.20881,-0.57255 0.38345,-0.7594 m 2.05039,0.10631 0.24739,1.73144 0.31456,2.20226 -0.5012,-0.0278 -0.89609,-0.0893 -0.69865,-0.0955 0.53691,-1.33655 0.9667,-2.38452 h 0.0304 m 4.02482,0.0456 0.85091,2.68828 0.25605,0.80496 0.10808,0.39489 c -0.45636,0 -0.92648,0.0309 -1.38211,0.0621 -0.246,0.0168 -0.56508,0.0847 -0.80496,0.0138 l 0.59994,-2.5364 0.34172,-1.42767 h 0.0304 m 2.0352,0.0304 0.94469,2.41489 0.31416,0.80497 0.12326,0.36451 c -0.48516,0.0626 -0.97448,0.11952 -1.45805,0.18876 -0.1267,0.0181 -0.25351,0.0224 -0.3797,0.0428 -0.0444,0.007 -0.11844,0.0272 -0.15791,-0.004 -0.0545,-0.0432 -0.004,-0.17152 0.004,-0.22739 0.032,-0.22213 0.0633,-0.44904 0.11007,-0.66828 0.14703,-0.6893 0.22432,-1.40049 0.34095,-2.09594 0.0314,-0.18718 0.0643,-0.3746 0.0932,-0.56196 0.0129,-0.0838 0.0124,-0.18951 0.0653,-0.2582 m -4.04002,0.22782 c 0.0619,0.47941 0.2345,0.95628 0.34174,1.42768 0.17171,0.75476 0.32003,1.54057 0.55436,2.2782 -0.12577,0.0372 -0.27936,0.0152 -0.41008,0.0152 -0.31098,0 -0.61687,-0.0162 -0.92647,-0.0298 -0.26738,-0.0117 -0.57686,0.0302 -0.83534,-0.0462 l 0.32662,-0.97203 0.90361,-2.6731 z"
       id="path1" /></g></svg>
